<?xml version="1.0" encoding="UTF-8"?>
<svg id="Layer_1" data-name="Layer 1" xmlns="http://www.w3.org/2000/svg" viewBox="0 0 1875.51 1087.8">
  <defs>
    <style>
      .cls-1 {
        letter-spacing: -.02em;
      }

      .cls-1, .cls-2, .cls-3, .cls-4, .cls-5, .cls-6, .cls-7, .cls-8, .cls-9, .cls-10, .cls-11, .cls-12, .cls-13, .cls-14, .cls-15, .cls-16, .cls-17 {
        fill: #000;
      }

      .cls-1, .cls-2, .cls-4, .cls-18, .cls-5, .cls-6, .cls-19, .cls-7, .cls-8, .cls-9, .cls-10, .cls-20, .cls-11, .cls-21, .cls-12, .cls-13, .cls-14, .cls-15, .cls-16, .cls-22, .cls-17 {
        isolation: isolate;
      }

      .cls-1, .cls-2, .cls-4, .cls-5, .cls-6, .cls-19, .cls-7, .cls-8, .cls-9, .cls-10, .cls-11, .cls-21, .cls-12, .cls-13, .cls-14, .cls-15, .cls-16, .cls-22, .cls-17 {
        font-family: Arial-BoldMT, Arial;
        font-weight: 700;
      }

      .cls-1, .cls-7, .cls-9, .cls-12, .cls-14, .cls-15, .cls-16 {
        font-size: 13.33px;
      }

      .cls-23, .cls-24, .cls-25, .cls-26, .cls-27, .cls-28, .cls-29, .cls-30, .cls-31, .cls-32, .cls-33, .cls-34, .cls-35, .cls-36, .cls-37, .cls-38, .cls-39, .cls-40, .cls-41, .cls-19, .cls-42, .cls-43, .cls-44, .cls-45, .cls-46, .cls-47, .cls-48, .cls-49, .cls-50, .cls-51, .cls-52, .cls-53, .cls-54, .cls-55, .cls-56, .cls-57, .cls-58, .cls-59, .cls-60, .cls-61, .cls-21, .cls-62, .cls-63, .cls-64, .cls-65, .cls-66, .cls-67, .cls-68, .cls-69, .cls-70, .cls-71, .cls-72, .cls-73, .cls-74, .cls-75, .cls-76, .cls-77, .cls-78, .cls-79, .cls-80, .cls-81, .cls-82, .cls-83, .cls-84, .cls-85, .cls-86, .cls-87, .cls-88, .cls-89, .cls-90 {
        fill: none;
      }

      .cls-23, .cls-46, .cls-90 {
        stroke: #fdb76b;
      }

      .cls-23, .cls-51, .cls-55, .cls-63, .cls-74, .cls-85, .cls-86 {
        stroke-width: 5.72px;
      }

      .cls-24, .cls-25, .cls-26, .cls-27, .cls-29, .cls-30, .cls-31, .cls-32, .cls-33, .cls-40, .cls-45, .cls-47, .cls-48, .cls-50, .cls-52, .cls-53, .cls-54, .cls-60, .cls-61, .cls-68, .cls-72, .cls-73, .cls-76, .cls-81, .cls-83, .cls-84, .cls-87, .cls-89, .cls-90 {
        stroke-width: 1.91px;
      }

      .cls-24, .cls-79 {
        stroke: #f88e53;
      }

      .cls-2 {
        letter-spacing: -.02em;
      }

      .cls-2, .cls-10 {
        font-size: 14.59px;
      }

      .cls-25 {
        stroke: #89cfa5;
      }

      .cls-26 {
        stroke: #d43f4b;
      }

      .cls-27, .cls-58, .cls-85 {
        stroke: #4478b2;
      }

      .cls-3, .cls-20 {
        stroke-width: 0px;
      }

      .cls-28, .cls-33, .cls-36, .cls-56, .cls-70, .cls-82, .cls-86 {
        stroke: #4f63ab;
      }

      .cls-28, .cls-43, .cls-44, .cls-57, .cls-66, .cls-77 {
        stroke-width: 7.63px;
      }

      .cls-4 {
        font-size: 15.24px;
      }

      .cls-29, .cls-34, .cls-44, .cls-71 {
        stroke: #438cb4;
      }

      .cls-30 {
        stroke: #fba35e;
      }

      .cls-31, .cls-37 {
        stroke: #ddf1a0;
      }

      .cls-32 {
        stroke: #f3784c;
      }

      .cls-34, .cls-37, .cls-38, .cls-39, .cls-41, .cls-42, .cls-46, .cls-58, .cls-62, .cls-67, .cls-78, .cls-79, .cls-82, .cls-88 {
        stroke-width: 3.82px;
      }

      .cls-35, .cls-52, .cls-74, .cls-77, .cls-78 {
        stroke: #fbf8b0;
      }

      .cls-35, .cls-65, .cls-69 {
        stroke-width: 9.54px;
      }

      .cls-36 {
        stroke-width: 28.62px;
      }

      .cls-38, .cls-53, .cls-63, .cls-66 {
        stroke: #ccea9f;
      }

      .cls-5 {
        letter-spacing: -.02em;
      }

      .cls-5, .cls-8 {
        font-size: 14.92px;
      }

      .cls-39, .cls-84 {
        stroke: #4ba0b1;
      }

      .cls-40, .cls-55 {
        stroke: #9e0142;
      }

      .cls-6, .cls-19, .cls-21 {
        font-size: 16.67px;
      }

      .cls-41, .cls-68 {
        stroke: #b11746;
      }

      .cls-19 {
        stroke-miterlimit: 10;
      }

      .cls-19, .cls-21 {
        stroke: #fff;
        stroke-width: .25px;
      }

      .cls-42, .cls-89 {
        stroke: #ebf7a6;
      }

      .cls-7 {
        letter-spacing: -.11em;
      }

      .cls-43, .cls-50 {
        stroke: #fee89a;
      }

      .cls-45 {
        stroke: #fdca79;
      }

      .cls-47, .cls-88 {
        stroke: #5cb3ac;
      }

      .cls-48 {
        stroke: #feda89;
      }

      .cls-49 {
        stroke-width: 20.99px;
      }

      .cls-49, .cls-51, .cls-57, .cls-59, .cls-62, .cls-64, .cls-65, .cls-73, .cls-75 {
        stroke: #5e4fa2;
      }

      .cls-54 {
        stroke: #b7e2a1;
      }

      .cls-56, .cls-59, .cls-80 {
        stroke-width: 13.36px;
      }

      .cls-60 {
        stroke: #c42c4a;
      }

      .cls-61 {
        stroke: #fdf2a8;
      }

      .cls-20 {
        fill: #fff;
        opacity: .3;
      }

      .cls-11 {
        font-size: 14.05px;
      }

      .cls-12 {
        letter-spacing: -.02em;
      }

      .cls-13 {
        font-size: 14.79px;
      }

      .cls-64 {
        stroke-width: 22.9px;
      }

      .cls-67, .cls-69, .cls-72, .cls-80 {
        stroke: #72c3a7;
      }

      .cls-70 {
        stroke-width: 19.08px;
      }

      .cls-71 {
        stroke-width: 11.45px;
      }

      .cls-75 {
        stroke-width: 32.44px;
      }

      .cls-14 {
        letter-spacing: -.07em;
      }

      .cls-76 {
        stroke: #ec6449;
      }

      .cls-15 {
        letter-spacing: -.06em;
      }

      .cls-81 {
        stroke: #e1524a;
      }

      .cls-83 {
        stroke: #a0d9a3;
      }

      .cls-16 {
        letter-spacing: -.12em;
      }

      .cls-87 {
        stroke: #f5faad;
      }

      .cls-22 {
        fill: #7b7b7b;
        font-size: 31px;
      }

      .cls-17 {
        font-size: 16.11px;
      }
    </style>
  </defs>
  <g class="cls-18">
    <g class="cls-18">
      <text class="cls-17" transform="translate(261.51 267.83)"><tspan x="0" y="0">Diseñador</tspan></text>
    </g>
  </g>
  <g class="cls-18">
    <g class="cls-18">
      <text class="cls-13" transform="translate(22.27 312.49)"><tspan x="0" y="0">Diseñador con mención Industrial y Servicios</tspan></text>
    </g>
  </g>
  <g class="cls-18">
    <g class="cls-18">
      <text class="cls-10" transform="translate(16.2 364.9)"><tspan x="0" y="0">Diseñador con mención en</tspan></text>
    </g>
    <g class="cls-18">
      <text class="cls-2" transform="translate(206.78 364.9)"><tspan x="0" y="0">V</tspan></text>
    </g>
    <g class="cls-18">
      <text class="cls-10" transform="translate(216.27 364.9)"><tspan x="0" y="0">isualidad y Medios</tspan></text>
    </g>
  </g>
  <g class="cls-18">
    <g class="cls-18">
      <text class="cls-11" transform="translate(267.95 427.5)"><tspan x="0" y="0">Diseñadora</tspan></text>
    </g>
  </g>
  <g class="cls-18">
    <g class="cls-18">
      <text class="cls-4" transform="translate(8.09 569.87)"><tspan x="0" y="0">Diseñadora con mención Industrial y Servicios</tspan></text>
    </g>
  </g>
  <g class="cls-18">
    <g class="cls-18">
      <text class="cls-8" transform="translate(0 824.43)"><tspan x="0" y="0">Diseñadora con mención en</tspan></text>
    </g>
    <g class="cls-18">
      <text class="cls-5" transform="translate(203.21 824.43)"><tspan x="0" y="0">V</tspan></text>
    </g>
    <g class="cls-18">
      <text class="cls-8" transform="translate(212.91 824.43)"><tspan x="0" y="0">isualidad y Medios</tspan></text>
    </g>
  </g>
  <g>
    <rect class="cls-3" x="1002.01" y="178.37" width="8.34" height="19.01"/>
    <rect class="cls-3" x="1002.01" y="205.72" width="8.34" height="31.84"/>
    <rect class="cls-3" x="1002.01" y="245.9" width="8.34" height="9.51"/>
    <rect class="cls-3" x="1002.01" y="263.73" width="8.34" height="3.17"/>
    <rect class="cls-3" x="1002.01" y="275.24" width="8.34" height="12.67"/>
    <rect class="cls-3" x="1002.01" y="296.41" width="8.34" height="28.67"/>
    <rect class="cls-3" x="1002.01" y="333.25" width="8.34" height="6.34"/>
    <rect class="cls-3" x="1002.01" y="348.1" width="8.34" height="12.67"/>
    <rect class="cls-3" x="1002.01" y="369.1" width="8.34" height="3.17"/>
    <rect class="cls-3" x="1002.01" y="380.61" width="8.34" height="63.69"/>
    <rect class="cls-3" x="1002.01" y="452.63" width="8.34" height="12.67"/>
    <rect class="cls-3" x="1002.01" y="473.64" width="8.34" height="15.84"/>
    <rect class="cls-3" x="1002.01" y="497.81" width="8.34" height="35.01"/>
    <rect class="cls-3" x="1002.01" y="541.16" width="8.34" height="6.34"/>
    <rect class="cls-3" x="1002.01" y="555.83" width="8.34" height="124.05"/>
    <rect class="cls-3" x="1002.01" y="688.37" width="8.34" height="9.51"/>
    <rect class="cls-3" x="1002.01" y="706.21" width="8.34" height="22.34"/>
    <rect class="cls-3" x="1002.01" y="736.73" width="8.34" height="31.84"/>
    <rect class="cls-3" x="1002.01" y="776.91" width="8.34" height="79.52"/>
    <rect class="cls-3" x="1002.01" y="864.77" width="8.34" height="3.17"/>
    <rect class="cls-3" x="1002.01" y="876.26" width="8.34" height="15.84"/>
    <rect class="cls-3" x="1002.01" y="900.61" width="8.34" height="15.84"/>
    <rect class="cls-3" x="1002.01" y="924.78" width="8.34" height="95.36"/>
    <rect class="cls-3" x="1652.22" y="115.86" width="8.34" height="31.84"/>
    <rect class="cls-3" x="1652.22" y="155.87" width="8.34" height="6.34"/>
    <rect class="cls-3" x="1652.22" y="170.7" width="8.34" height="28.67"/>
    <rect class="cls-3" x="1652.22" y="207.55" width="8.34" height="28.67"/>
    <rect class="cls-3" x="1652.22" y="244.56" width="8.34" height="22.34"/>
    <rect class="cls-3" x="351.8" y="249.23" width="8.34" height="28.67"/>
    <rect class="cls-3" x="351.8" y="286.08" width="8.34" height="35.01"/>
    <rect class="cls-3" x="351.8" y="329.43" width="8.34" height="60.52"/>
    <rect class="cls-3" x="351.8" y="398.28" width="8.34" height="47.68"/>
    <rect class="cls-3" x="351.8" y="454.3" width="8.34" height="222.73"/>
    <rect class="cls-3" x="351.8" y="685.37" width="8.34" height="264.09"/>
    <rect class="cls-3" x="1652.22" y="275.24" width="8.34" height="79.52"/>
    <rect class="cls-3" x="1652.22" y="363.1" width="8.34" height="22.34"/>
    <rect class="cls-3" x="1652.22" y="393.61" width="8.34" height="38.18"/>
    <rect class="cls-3" x="1652.22" y="440.13" width="8.34" height="19.01"/>
    <rect class="cls-3" x="1652.22" y="467.63" width="8.34" height="9.51"/>
    <rect class="cls-3" x="1652.22" y="485.48" width="8.34" height="41.35"/>
    <rect class="cls-3" x="1652.22" y="535.16" width="8.34" height="6.34"/>
    <rect class="cls-3" x="1652.22" y="549.83" width="8.34" height="12.67"/>
    <rect class="cls-3" x="1652.22" y="571" width="8.34" height="6.34"/>
    <rect class="cls-3" x="1652.22" y="585.67" width="8.34" height="9.51"/>
    <rect class="cls-3" x="1652.22" y="603.52" width="8.34" height="12.67"/>
    <rect class="cls-3" x="1652.22" y="624.52" width="8.34" height="3.17"/>
    <rect class="cls-3" x="1652.22" y="636.03" width="8.34" height="3.17"/>
    <rect class="cls-3" x="1652.22" y="647.69" width="8.34" height="19.01"/>
    <rect class="cls-3" x="1652.22" y="675.04" width="8.34" height="6.34"/>
    <rect class="cls-3" x="1652.22" y="689.7" width="8.34" height="12.67"/>
    <rect class="cls-3" x="1652.22" y="710.72" width="8.34" height="47.68"/>
    <rect class="cls-3" x="1652.22" y="766.89" width="8.34" height="22.34"/>
    <rect class="cls-3" x="1652.22" y="797.4" width="8.34" height="15.84"/>
    <rect class="cls-3" x="1652.22" y="821.75" width="8.34" height="6.34"/>
    <rect class="cls-3" x="1652.22" y="836.43" width="8.34" height="6.34"/>
    <rect class="cls-3" x="1652.22" y="851.09" width="8.34" height="9.51"/>
    <rect class="cls-3" x="1652.22" y="868.94" width="8.34" height="9.51"/>
    <rect class="cls-3" x="1652.22" y="886.94" width="8.34" height="3.17"/>
    <rect class="cls-3" x="1652.22" y="898.44" width="8.34" height="3.17"/>
    <rect class="cls-3" x="1652.22" y="909.94" width="8.34" height="3.17"/>
    <rect class="cls-3" x="1652.22" y="921.45" width="8.34" height="25.5"/>
    <rect class="cls-3" x="1652.22" y="955.13" width="8.34" height="3.17"/>
    <rect class="cls-3" x="1652.22" y="966.8" width="8.34" height="12.67"/>
    <rect class="cls-3" x="1652.22" y="987.8" width="8.34" height="6.34"/>
    <rect class="cls-3" x="1652.22" y="1002.48" width="8.34" height="35.01"/>
    <rect class="cls-3" x="1652.22" y="1045.82" width="8.34" height="19.01"/>
    <rect class="cls-3" x="1652.22" y="1073.16" width="8.34" height="9.51"/>
  </g>
  <g>
    <path class="cls-64" d="M360.14,876.26c320.94,0,320.94-38.85,641.87-38.85"/>
    <path class="cls-49" d="M360.14,931.95c320.94,0,320.94,70.85,641.87,70.85"/>
    <path class="cls-58" d="M360.14,430.13c320.94,0,320.94,362.79,641.87,362.79"/>
    <path class="cls-84" d="M360.14,303.58c320.94,0,320.94,239.08,641.87,239.08"/>
    <path class="cls-36" d="M360.14,653.19c320.94,0,320.94,308.26,641.87,308.26"/>
    <path class="cls-65" d="M360.14,709.21c320.94,0,320.94-392.13,641.87-392.13"/>
    <path class="cls-62" d="M360.14,688.54c320.94,0,320.94-494.33,641.87-494.33"/>
    <path class="cls-28" d="M360.14,470.14c320.94,0,320.94-245.41,641.87-245.41"/>
    <path class="cls-33" d="M360.14,538.66c320.94,0,320.94,7.34,641.87,7.34"/>
    <path class="cls-51" d="M360.14,756.89c320.94,0,320.94-296.42,641.87-296.42"/>
    <path class="cls-75" d="M360.14,807.74c320.94,0,320.94-154.88,641.87-154.88"/>
    <path class="cls-62" d="M360.14,720.38c320.94,0,320.94-383.79,641.87-383.79"/>
    <path class="cls-71" d="M360.14,370.77c320.94,0,320.94,207.4,641.87,207.4"/>
    <path class="cls-33" d="M360.14,627.69c320.94,0,320.94,280.76,641.87,280.76"/>
    <path class="cls-70" d="M360.14,556.16c320.94,0,320.94,53.85,641.87,53.85"/>
    <path class="cls-82" d="M360.14,622.85c320.94,0,320.94,256.59,641.87,256.59"/>
    <path class="cls-28" d="M360.14,591.17c320.94,0,320.94,155.21,641.87,155.21"/>
    <path class="cls-82" d="M360.14,533.82c320.94,0,320.94-16.83,641.87-16.83"/>
    <path class="cls-47" d="M360.14,276.24c320.94,0,320.94,650.21,641.87,650.21"/>
    <path class="cls-51" d="M360.14,903.27c320.94,0,320.94-15.84,641.87-15.84"/>
    <path class="cls-62" d="M360.14,764.89c320.94,0,320.94-278.59,641.87-278.59"/>
    <path class="cls-39" d="M360.14,308.41c320.94,0,320.94,257.08,641.87,257.08"/>
    <path class="cls-88" d="M360.14,261.9c320.94,0,320.94,297.1,641.87,297.1"/>
    <path class="cls-47" d="M360.14,250.73c320.94,0,320.94,14.68,641.87,14.68"/>
    <path class="cls-39" d="M360.14,292.58c320.94,0,320.94,97.7,641.87,97.7"/>
    <path class="cls-27" d="M360.14,406.28c320.94,0,320.94-56.52,641.87-56.52"/>
    <path class="cls-44" d="M360.14,348.59c320.94,0,320.94,51.18,641.87,51.18"/>
    <path class="cls-85" d="M360.14,441.13c320.94,0,320.94,491.5,641.87,491.5"/>
    <path class="cls-62" d="M360.14,911.28c320.94,0,320.94,2,641.87,2"/>
    <path class="cls-34" d="M360.14,386.78c320.94,0,320.94,399.8,641.87,399.8"/>
    <path class="cls-33" d="M360.14,503.64c320.94,0,320.94-150.88,641.87-150.88"/>
    <path class="cls-82" d="M360.14,498.81c320.94,0,320.94-192.9,641.87-192.9"/>
    <path class="cls-86" d="M360.14,576.84c320.94,0,320.94,116.2,641.87,116.2"/>
    <path class="cls-62" d="M360.14,726.72c320.94,0,320.94-369.12,641.87-369.12"/>
    <path class="cls-86" d="M360.14,459.13c320.94,0,320.94-272.76,641.87-272.76"/>
    <path class="cls-88" d="M360.14,255.57c320.94,0,320.94,128.21,641.87,128.21"/>
    <path class="cls-84" d="M360.14,316.42c320.94,0,320.94,465.31,641.87,465.31"/>
    <path class="cls-86" d="M360.14,481.31c320.94,0,320.94-230.74,641.87-230.74"/>
    <path class="cls-29" d="M360.14,356.43c320.94,0,320.94,118.71,641.87,118.71"/>
    <path class="cls-57" d="M360.14,774.4c320.94,0,320.94-247.92,641.87-247.92"/>
    <path class="cls-39" d="M360.14,298.92c320.94,0,320.94,202.24,641.87,202.24"/>
    <path class="cls-59" d="M360.14,741.05c320.94,0,320.94-307.93,641.87-307.93"/>
    <path class="cls-27" d="M360.14,434.79c320.94,0,320.94,470.48,641.87,470.48"/>
    <path class="cls-86" d="M360.14,490.98c320.94,0,320.94-210.91,641.87-210.91"/>
    <path class="cls-47" d="M360.14,273.07c320.94,0,320.94,505.49,641.87,505.49"/>
    <path class="cls-33" d="M360.14,522.65c320.94,0,320.94-68.52,641.87-68.52"/>
    <path class="cls-28" d="M360.14,514.82c320.94,0,320.94-99.19,641.87-99.19"/>
    <path class="cls-84" d="M360.14,287.74c320.94,0,320.94-80.36,641.87-80.36"/>
    <path class="cls-56" d="M360.14,608.68c320.94,0,320.94,198.56,641.87,198.56"/>
    <path class="cls-58" d="M360.14,414.12c320.94,0,320.94,96.37,641.87,96.37"/>
    <path class="cls-73" d="M360.14,699.71c320.94,0,320.94-413.3,641.87-413.3"/>
    <path class="cls-27" d="M360.14,425.29c320.94,0,320.94,292.1,641.87,292.1"/>
    <path class="cls-29" d="M360.14,340.59c320.94,0,320.94-42.68,641.87-42.68"/>
    <path class="cls-62" d="M360.14,694.88c320.94,0,320.94-460.48,641.87-460.48"/>
    <path class="cls-65" d="M360.14,849.25c320.94,0,320.94-88.53,641.87-88.53"/>
    <path class="cls-29" d="M360.14,381.94c320.94,0,320.94,356.45,641.87,356.45"/>
    <path class="cls-34" d="M360.14,335.75c320.94,0,320.94-123.71,641.87-123.71"/>
    <path class="cls-82" d="M360.14,527.48c320.94,0,320.94-47.52,641.87-47.52"/>
    <path class="cls-27" d="M360.14,409.44c320.94,0,320.94-1.84,641.87-1.84"/>
    <path class="cls-29" d="M360.14,359.77c320.94,0,320.94,146.05,641.87,146.05"/>
    <path class="cls-33" d="M360.14,583.17c320.94,0,320.94,137.38,641.87,137.38"/>
    <path class="cls-33" d="M360.14,506.81c320.94,0,320.94-136.21,641.87-136.21"/>
    <path class="cls-73" d="M360.14,896.94c320.94,0,320.94-30.51,641.87-30.51"/>
    <path class="cls-62" d="M360.14,838.09c320.94,0,320.94-112.7,641.87-112.7"/>
    <path class="cls-84" d="M360.14,313.25c320.94,0,320.94,400.96,641.87,400.96"/>
    <path class="cls-27" d="M360.14,399.78c320.94,0,320.94-182.9,641.87-182.9"/>
    <path class="cls-88" d="M360.14,268.23c320.94,0,320.94,441.14,641.87,441.14"/>
    <path class="cls-58" d="M360.14,420.46c320.94,0,320.94,170.39,641.87,170.39"/>
    <path class="cls-84" d="M360.14,319.59c320.94,0,320.94,582.69,641.87,582.69"/>
    <path class="cls-29" d="M360.14,331.09c320.94,0,320.94-151.22,641.87-151.22"/>
    <path class="cls-27" d="M360.14,402.95c320.94,0,320.94-101.87,641.87-101.87"/>
    <path class="cls-53" d="M1010.35,794.41c320.94,0,320.94-566.18,641.87-566.18"/>
    <path class="cls-72" d="M1010.35,1009.14c320.94,0,320.94-16.5,641.87-16.5"/>
    <path class="cls-53" d="M1010.35,826.25c320.94,0,320.94-75.69,641.87-75.69"/>
    <path class="cls-61" d="M1010.35,546c320.94,0,320.94,425.48,641.87,425.48"/>
    <path class="cls-72" d="M1010.35,986.8c320.94,0,320.94-425.81,641.87-425.81"/>
    <path class="cls-76" d="M1010.35,301.07c320.94,0,320.94-91.87,641.87-91.87"/>
    <path class="cls-67" d="M1010.35,959.79c320.94,0,320.94-485.82,641.87-485.82"/>
    <path class="cls-55" d="M1010.35,183.05c320.94,0,320.94,96.86,641.87,96.86"/>
    <path class="cls-38" d="M1010.35,831.09c320.94,0,320.94-48.18,641.87-48.18"/>
    <path class="cls-41" d="M1010.35,212.05c320.94,0,320.94,75.86,641.87,75.86"/>
    <path class="cls-80" d="M1010.35,974.14c320.94,0,320.94-458.48,641.87-458.48"/>
    <path class="cls-67" d="M1010.35,1013.81c320.94,0,320.94,20.34,641.87,20.34"/>
    <path class="cls-72" d="M1010.35,942.29c320.94,0,320.94-707.73,641.87-707.73"/>
    <path class="cls-61" d="M1010.35,542.83c320.94,0,320.94-171.72,641.87-171.72"/>
    <path class="cls-45" d="M1010.35,463.64c320.94,0,320.94,258.25,641.87,258.25"/>
    <path class="cls-77" d="M1010.35,638.69c320.94,0,320.94,97.7,641.87,97.7"/>
    <path class="cls-32" d="M1010.35,334.93c320.94,0,320.94-162.72,641.87-162.72"/>
    <path class="cls-72" d="M1010.35,954.96c320.94,0,320.94-524.83,641.87-524.83"/>
    <path class="cls-74" d="M1010.35,649.69c320.94,0,320.94,125.04,641.87,125.04"/>
    <path class="cls-25" d="M1010.35,905.28c320.94,0,320.94-558.51,641.87-558.51"/>
    <path class="cls-77" d="M1010.35,575c320.94,0,320.94-252.09,641.87-252.09"/>
    <path class="cls-83" d="M1010.35,884.27c320.94,0,320.94-540.68,641.87-540.68"/>
    <path class="cls-37" d="M1010.35,765.4c320.94,0,320.94,252.91,641.87,252.91"/>
    <path class="cls-50" d="M1010.35,531.32c320.94,0,320.94,479.15,641.87,479.15"/>
    <path class="cls-69" d="M1010.35,932.78c320.94,0,320.94-741.41,641.87-741.41"/>
    <path class="cls-35" d="M1010.35,598.84c320.94,0,320.94-187.73,641.87-187.73"/>
    <path class="cls-38" d="M1010.35,811.91c320.94,0,320.94-386.46,641.87-386.46"/>
    <path class="cls-83" d="M1010.35,881.1c320.94,0,320.94-649.54,641.87-649.54"/>
    <path class="cls-48" d="M1010.35,478.47c320.94,0,320.94-262.75,641.87-262.75"/>
    <path class="cls-78" d="M1010.35,558.99c320.94,0,320.94-436.97,641.87-436.97"/>
    <path class="cls-66" d="M1010.35,783.23c320.94,0,320.94-642.04,641.87-642.04"/>
    <path class="cls-52" d="M1010.35,665.7c320.94,0,320.94,175.56,641.87,175.56"/>
    <path class="cls-26" d="M1010.35,265.41c320.94,0,320.94,608.36,641.87,608.36"/>
    <path class="cls-46" d="M1010.35,390.11c320.94,0,320.94-80.03,641.87-80.03"/>
    <path class="cls-24" d="M1010.35,349.59c320.94,0,320.94-47.35,641.87-47.35"/>
    <path class="cls-90" d="M1010.35,401.28c320.94,0,320.94,174.39,641.87,174.39"/>
    <path class="cls-78" d="M1010.35,629.02c320.94,0,320.94,67.02,641.87,67.02"/>
    <path class="cls-72" d="M1010.35,993.14c320.94,0,320.94-292.43,641.87-292.43"/>
    <path class="cls-25" d="M1010.35,908.44c320.94,0,320.94-154.72,641.87-154.72"/>
    <path class="cls-46" d="M1010.35,383.77c320.94,0,320.94-132.88,641.87-132.88"/>
    <path class="cls-32" d="M1010.35,338.09c320.94,0,320.94-125.71,641.87-125.71"/>
    <path class="cls-48" d="M1010.35,487.97c320.94,0,320.94,590.02,641.87,590.02"/>
    <path class="cls-45" d="M1010.35,454.13c320.94,0,320.94-12.33,641.87-12.33"/>
    <path class="cls-83" d="M1010.35,887.44c320.94,0,320.94-384.46,641.87-384.46"/>
    <path class="cls-53" d="M1010.35,842.09c320.94,0,320.94,99.86,641.87,99.86"/>
    <path class="cls-24" d="M1010.35,352.76c320.94,0,320.94,134.21,641.87,134.21"/>
    <path class="cls-76" d="M1010.35,304.24c320.94,0,320.94-5.34,641.87-5.34"/>
    <path class="cls-53" d="M1010.35,816.74c320.94,0,320.94-359.11,641.87-359.11"/>
    <path class="cls-52" d="M1010.35,567c320.94,0,320.94-311.27,641.87-311.27"/>
    <path class="cls-87" d="M1010.35,689.87c320.94,0,320.94-430.98,641.87-430.98"/>
    <path class="cls-52" d="M1010.35,621.18c320.94,0,320.94,40.85,641.87,40.85"/>
    <path class="cls-52" d="M1010.35,668.87c320.94,0,320.94,208.07,641.87,208.07"/>
    <path class="cls-79" d="M1010.35,357.6c320.94,0,320.94,573.35,641.87,573.35"/>
    <path class="cls-40" d="M1010.35,192.72c320.94,0,320.94,379.96,641.87,379.96"/>
    <path class="cls-87" d="M1010.35,696.21c320.94,0,320.94-138.38,641.87-138.38"/>
    <path class="cls-46" d="M1010.35,396.45c320.94,0,320.94,3.5,641.87,3.5"/>
    <path class="cls-53" d="M1010.35,838.92c320.94,0,320.94,61.02,641.87,61.02"/>
    <path class="cls-60" d="M1010.35,247.56c320.94,0,320.94,45.18,641.87,45.18"/>
    <path class="cls-52" d="M1010.35,672.04c320.94,0,320.94,317.44,641.87,317.44"/>
    <path class="cls-53" d="M1010.35,791.24c320.94,0,320.94-615.86,641.87-615.86"/>
    <path class="cls-48" d="M1010.35,484.81c320.94,0,320.94,240.41,641.87,240.41"/>
    <path class="cls-43" d="M1010.35,510.65c320.94,0,320.94-60.85,641.87-60.85"/>
    <path class="cls-50" d="M1010.35,528.15c320.94,0,320.94,440.14,641.87,440.14"/>
    <path class="cls-25" d="M1010.35,902.11c320.94,0,320.94-720.4,641.87-720.4"/>
    <path class="cls-52" d="M1010.35,675.2c320.94,0,320.94,338.44,641.87,338.44"/>
    <path class="cls-81" d="M1010.35,276.9c320.94,0,320.94,19.01,641.87,19.01"/>
    <path class="cls-72" d="M1010.35,1018.65c320.94,0,320.94,44.68,641.87,44.68"/>
    <path class="cls-53" d="M1010.35,835.75c320.94,0,320.94,52.69,641.87,52.69"/>
    <path class="cls-45" d="M1010.35,460.47c320.94,0,320.94,230.74,641.87,230.74"/>
    <path class="cls-50" d="M1010.35,502.65c320.94,0,320.94-187.73,641.87-187.73"/>
    <path class="cls-68" d="M1010.35,216.89c320.94,0,320.94,147.71,641.87,147.71"/>
    <path class="cls-67" d="M1010.35,950.28c320.94,0,320.94-598.69,641.87-598.69"/>
    <path class="cls-46" d="M1010.35,431.46c320.94,0,320.94,505.83,641.87,505.83"/>
    <path class="cls-63" d="M1010.35,848.59c320.94,0,320.94,177.89,641.87,177.89"/>
    <path class="cls-74" d="M1010.35,586.18c320.94,0,320.94-208.74,641.87-208.74"/>
    <path class="cls-50" d="M1010.35,521.65c320.94,0,320.94,206.57,641.87,206.57"/>
    <path class="cls-81" d="M1010.35,286.41c320.94,0,320.94,670.39,641.87,670.39"/>
    <path class="cls-42" d="M1010.35,725.22c320.94,0,320.94,20.51,641.87,20.51"/>
    <path class="cls-23" d="M1010.35,420.29c320.94,0,320.94,295.26,641.87,295.26"/>
    <path class="cls-76" d="M1010.35,313.91c320.94,0,320.94,524.17,641.87,524.17"/>
    <path class="cls-41" d="M1010.35,224.89c320.94,0,320.94,699.73,641.87,699.73"/>
    <path class="cls-53" d="M1010.35,823.08c320.94,0,320.94-323.27,641.87-323.27"/>
    <path class="cls-31" d="M1010.35,751.06c320.94,0,320.94-330.44,641.87-330.44"/>
    <path class="cls-63" d="M1010.35,803.9c320.94,0,320.94-466.82,641.87-466.82"/>
    <path class="cls-31" d="M1010.35,754.23c320.94,0,320.94-160.72,641.87-160.72"/>
    <path class="cls-41" d="M1010.35,234.39c320.94,0,320.94,814.6,641.87,814.6"/>
    <path class="cls-37" d="M1010.35,739.88c320.94,0,320.94-608.2,641.87-608.2"/>
    <path class="cls-48" d="M1010.35,481.64c320.94,0,320.94-113.7,641.87-113.7"/>
    <path class="cls-74" d="M1010.35,659.36c320.94,0,320.94,142.88,641.87,142.88"/>
    <path class="cls-72" d="M1010.35,1002.81c320.94,0,320.94-57.52,641.87-57.52"/>
    <path class="cls-52" d="M1010.35,563.83c320.94,0,320.94-345.11,641.87-345.11"/>
    <path class="cls-72" d="M1010.35,999.64c320.94,0,320.94-212.07,641.87-212.07"/>
    <path class="cls-90" d="M1010.35,442.62c320.94,0,320.94,632.2,641.87,632.2"/>
    <path class="cls-53" d="M1010.35,854.93c320.94,0,320.94,226.24,641.87,226.24"/>
    <path class="cls-89" d="M1010.35,710.88c320.94,0,320.94-380.13,641.87-380.13"/>
    <path class="cls-30" d="M1010.35,370.61c320.94,0,320.94-65.19,641.87-65.19"/>
    <path class="cls-50" d="M1010.35,518.48c320.94,0,320.94-28.34,641.87-28.34"/>
    <path class="cls-37" d="M1010.35,746.39c320.94,0,320.94-522.83,641.87-522.83"/>
    <path class="cls-81" d="M1010.35,280.07c320.94,0,320.94,271.42,641.87,271.42"/>
    <path class="cls-54" d="M1010.35,866.43c320.94,0,320.94-57.85,641.87-57.85"/>
    <path class="cls-53" d="M1010.35,819.91c320.94,0,320.94-350.78,641.87-350.78"/>
    <path class="cls-52" d="M1010.35,614.68c320.94,0,320.94-60.19,641.87-60.19"/>
    <path class="cls-78" d="M1010.35,610.02c320.94,0,320.94-114.87,641.87-114.87"/>
    <path class="cls-25" d="M1010.35,911.78c320.94,0,320.94-99.86,641.87-99.86"/>
    <path class="cls-68" d="M1010.35,220.06c320.94,0,320.94,650.54,641.87,650.54"/>
    <path class="cls-50" d="M1010.35,524.98c320.94,0,320.94,330.94,641.87,330.94"/>
    <path class="cls-81" d="M1010.35,283.24c320.94,0,320.94,342.94,641.87,342.94"/>
    <path class="cls-76" d="M1010.35,310.58c320.94,0,320.94,341.77,641.87,341.77"/>
    <path class="cls-53" d="M1010.35,797.58c320.94,0,320.94-535.51,641.87-535.51"/>
    <path class="cls-42" d="M1010.35,715.71c320.94,0,320.94-126.87,641.87-126.87"/>
    <path class="cls-76" d="M1010.35,317.08c320.94,0,320.94,535.67,641.87,535.67"/>
    <path class="cls-52" d="M1010.35,678.37c320.94,0,320.94,381.79,641.87,381.79"/>
    <path class="cls-83" d="M1010.35,890.6c320.94,0,320.94-31.51,641.87-31.51"/>
    <path class="cls-31" d="M1010.35,760.73c320.94,0,320.94,65.86,641.87,65.86"/>
    <path class="cls-68" d="M1010.35,207.38c320.94,0,320.94,38.85,641.87,38.85"/>
    <path class="cls-72" d="M1010.35,1005.98c320.94,0,320.94-28.01,641.87-28.01"/>
    <path class="cls-72" d="M1010.35,996.47c320.94,0,320.94-239.41,641.87-239.41"/>
    <path class="cls-46" d="M1010.35,412.45c320.94,0,320.94,244.75,641.87,244.75"/>
    <path class="cls-25" d="M1010.35,914.95c320.94,0,320.94,59.85,641.87,59.85"/>
    <path class="cls-40" d="M1010.35,195.87c320.94,0,320.94,453.31,641.87,453.31"/>
    <path class="cls-52" d="M1010.35,624.35c320.94,0,320.94,52.35,641.87,52.35"/>
    <path class="cls-50" d="M1010.35,499.48c320.94,0,320.94-382.13,641.87-382.13"/>
    <path class="cls-83" d="M1010.35,877.94c320.94,0,320.94-699.39,641.87-699.39"/>
    <path class="cls-72" d="M1010.35,989.97c320.94,0,320.94-375.45,641.87-375.45"/>
    <path class="cls-46" d="M1010.35,406.11c320.94,0,320.94,203.9,641.87,203.9"/>
    <path class="cls-89" d="M1010.35,707.71c320.94,0,320.94-580.86,641.87-580.86"/>
    <path class="cls-68" d="M1010.35,229.56c320.94,0,320.94,774.42,641.87,774.42"/>
    <path class="cls-90" d="M1010.35,426.78c320.94,0,320.94,341.77,641.87,341.77"/>
    <path class="cls-60" d="M1010.35,253.9c320.94,0,320.94,569.51,641.87,569.51"/>
    <path class="cls-48" d="M1010.35,475.13c320.94,0,320.94-314.43,641.87-314.43"/>
    <path class="cls-45" d="M1010.35,457.3c320.94,0,320.94,82.69,641.87,82.69"/>
    <path class="cls-76" d="M1010.35,297.92c320.94,0,320.94-140.37,641.87-140.37"/>
    <path class="cls-60" d="M1010.35,250.73c320.94,0,320.94,354.45,641.87,354.45"/>
    <path class="cls-76" d="M1010.35,323.42c320.94,0,320.94,730.4,641.87,730.4"/>
    <path class="cls-87" d="M1010.35,693.04c320.94,0,320.94-309.26,641.87-309.26"/>
    <path class="cls-90" d="M1010.35,439.46c320.94,0,320.94,617.54,641.87,617.54"/>
    <path class="cls-40" d="M1010.35,189.37c320.94,0,320.94,205.74,641.87,205.74"/>
    <path class="cls-76" d="M1010.35,320.25c320.94,0,320.94,591.2,641.87,591.2"/>
    <path class="cls-52" d="M1010.35,617.85c320.94,0,320.94,19.67,641.87,19.67"/>
    <path class="cls-89" d="M1010.35,720.55c320.94,0,320.94-55.35,641.87-55.35"/>
    <path class="cls-31" d="M1010.35,757.4c320.94,0,320.94-77.7,641.87-77.7"/>
    <path class="cls-90" d="M1010.35,436.29c320.94,0,320.94,571.02,641.87,571.02"/>
    <path class="cls-72" d="M1010.35,945.45c320.94,0,320.94-680.22,641.87-680.22"/>
    <path class="cls-76" d="M1010.35,307.41c320.94,0,320.94,229.25,641.87,229.25"/>
  </g>
  <g id="Layer_2" data-name="Layer 2">
    <rect class="cls-20" x="1010.35" y="178.37" width="38.36" height="841.78"/>
  </g>
  <g class="cls-18">
    <g class="cls-18">
      <text class="cls-6" transform="translate(1017.37 192.62)"><tspan x="0" y="0">4,0</tspan></text>
    </g>
  </g>
  <g class="cls-18">
    <g class="cls-18">
      <text class="cls-6" transform="translate(1017.06 227.45)"><tspan x="0" y="0">4,5</tspan></text>
    </g>
  </g>
  <g class="cls-18">
    <g class="cls-18">
      <text class="cls-19" transform="translate(1017.06 227.45)"><tspan x="0" y="0">4,5</tspan></text>
    </g>
  </g>
  <g class="cls-18">
    <g class="cls-18">
      <text class="cls-6" transform="translate(1017.06 254.8)"><tspan x="0" y="0">4,6</tspan></text>
    </g>
  </g>
  <g class="cls-18">
    <g class="cls-18">
      <text class="cls-19" transform="translate(1017.06 254.8)"><tspan x="0" y="0">4,6</tspan></text>
    </g>
  </g>
  <g class="cls-18">
    <g class="cls-18">
      <text class="cls-6" transform="translate(1017.06 271.17)"><tspan x="0" y="0">4,7</tspan></text>
    </g>
  </g>
  <g class="cls-18">
    <g class="cls-18">
      <text class="cls-19" transform="translate(1017.06 271.17)"><tspan x="0" y="0">4,7</tspan></text>
    </g>
  </g>
  <g class="cls-18">
    <g class="cls-18">
      <text class="cls-6" transform="translate(1017.06 287.46)"><tspan x="0" y="0">4,8</tspan></text>
    </g>
  </g>
  <g class="cls-18">
    <g class="cls-18">
      <text class="cls-19" transform="translate(1017.06 287.46)"><tspan x="0" y="0">4,8</tspan></text>
    </g>
  </g>
  <g class="cls-18">
    <g class="cls-18">
      <text class="cls-6" transform="translate(1017.06 316.47)"><tspan x="0" y="0">5,0</tspan></text>
    </g>
  </g>
  <g class="cls-18">
    <g class="cls-18">
      <text class="cls-19" transform="translate(1017.06 316.47)"><tspan x="0" y="0">5,0</tspan></text>
    </g>
  </g>
  <g class="cls-18">
    <g class="cls-18">
      <text class="cls-6" transform="translate(1017.06 342.31)"><tspan x="0" y="0">5,2</tspan></text>
    </g>
  </g>
  <g class="cls-18">
    <g class="cls-18">
      <text class="cls-19" transform="translate(1017.06 342.31)"><tspan x="0" y="0">5,2</tspan></text>
    </g>
  </g>
  <g class="cls-18">
    <g class="cls-18">
      <text class="cls-6" transform="translate(1017.06 360.18)"><tspan x="0" y="0">5,3</tspan></text>
    </g>
  </g>
  <g class="cls-18">
    <g class="cls-18">
      <text class="cls-19" transform="translate(1017.06 360.18)"><tspan x="0" y="0">5,3</tspan></text>
    </g>
  </g>
  <g class="cls-18">
    <g class="cls-18">
      <text class="cls-6" transform="translate(1017.06 376.48)"><tspan x="0" y="0">5,4</tspan></text>
    </g>
  </g>
  <g class="cls-18">
    <g class="cls-18">
      <text class="cls-19" transform="translate(1017.06 376.48)"><tspan x="0" y="0">5,4</tspan></text>
    </g>
  </g>
  <g class="cls-18">
    <g class="cls-18">
      <text class="cls-6" transform="translate(1017.06 419.88)"><tspan x="0" y="0">5,5</tspan></text>
    </g>
  </g>
  <g class="cls-18">
    <g class="cls-18">
      <text class="cls-19" transform="translate(1017.06 419.88)"><tspan x="0" y="0">5,5</tspan></text>
    </g>
  </g>
  <g class="cls-18">
    <g class="cls-18">
      <text class="cls-6" transform="translate(1017.06 464.74)"><tspan x="0" y="0">5,6</tspan></text>
    </g>
  </g>
  <g class="cls-18">
    <g class="cls-18">
      <text class="cls-19" transform="translate(1017.06 464.74)"><tspan x="0" y="0">5,6</tspan></text>
    </g>
  </g>
  <g class="cls-18">
    <g class="cls-18">
      <text class="cls-6" transform="translate(1017.06 487.37)"><tspan x="0" y="0">5,7</tspan></text>
    </g>
  </g>
  <g class="cls-18">
    <g class="cls-18">
      <text class="cls-19" transform="translate(1017.06 487.37)"><tspan x="0" y="0">5,7</tspan></text>
    </g>
  </g>
  <g class="cls-18">
    <g class="cls-18">
      <text class="cls-6" transform="translate(1017.06 521.17)"><tspan x="0" y="0">5,8</tspan></text>
    </g>
  </g>
  <g class="cls-18">
    <g class="cls-18">
      <text class="cls-19" transform="translate(1017.06 521.17)"><tspan x="0" y="0">5,8</tspan></text>
    </g>
  </g>
  <g class="cls-18">
    <g class="cls-18">
      <text class="cls-6" transform="translate(1017.06 550.18)"><tspan x="0" y="0">5,9</tspan></text>
    </g>
  </g>
  <g class="cls-18">
    <g class="cls-18">
      <text class="cls-19" transform="translate(1017.06 550.18)"><tspan x="0" y="0">5,9</tspan></text>
    </g>
  </g>
  <g class="cls-18">
    <g class="cls-18">
      <text class="cls-6" transform="translate(1017.06 622.06)"><tspan x="0" y="0">6,0</tspan></text>
    </g>
  </g>
  <g class="cls-18">
    <g class="cls-18">
      <text class="cls-19" transform="translate(1017.06 622.06)"><tspan x="0" y="0">6,0</tspan></text>
    </g>
  </g>
  <g class="cls-18">
    <g class="cls-18">
      <text class="cls-6" transform="translate(1017.06 698.88)"><tspan x="0" y="0">6,1</tspan></text>
    </g>
  </g>
  <g class="cls-18">
    <g class="cls-18">
      <text class="cls-19" transform="translate(1017.06 698.88)"><tspan x="0" y="0">6,1</tspan></text>
    </g>
  </g>
  <g class="cls-18">
    <g class="cls-18">
      <text class="cls-6" transform="translate(1017.06 723.12)"><tspan x="0" y="0">6,2</tspan></text>
    </g>
  </g>
  <g class="cls-18">
    <g class="cls-18">
      <text class="cls-19" transform="translate(1017.06 723.12)"><tspan x="0" y="0">6,2</tspan></text>
    </g>
  </g>
  <g class="cls-18">
    <g class="cls-18">
      <text class="cls-6" transform="translate(1017.06 758.5)"><tspan x="0" y="0">6,3</tspan></text>
    </g>
  </g>
  <g class="cls-18">
    <g class="cls-18">
      <text class="cls-19" transform="translate(1017.06 758.5)"><tspan x="0" y="0">6,3</tspan></text>
    </g>
  </g>
  <g class="cls-18">
    <g class="cls-18">
      <text class="cls-6" transform="translate(1017.06 824.18)"><tspan x="0" y="0">6,5</tspan></text>
    </g>
  </g>
  <g class="cls-18">
    <g class="cls-18">
      <text class="cls-19" transform="translate(1017.06 824.18)"><tspan x="0" y="0">6,5</tspan></text>
    </g>
  </g>
  <g class="cls-18">
    <g class="cls-18">
      <text class="cls-6" transform="translate(1017.06 872.2)"><tspan x="0" y="0">6,6</tspan></text>
    </g>
  </g>
  <g class="cls-18">
    <g class="cls-18">
      <text class="cls-19" transform="translate(1017.06 872.2)"><tspan x="0" y="0">6,6</tspan></text>
    </g>
  </g>
  <g class="cls-18">
    <g class="cls-18">
      <text class="cls-6" transform="translate(1017.06 890.09)"><tspan x="0" y="0">6,7</tspan></text>
    </g>
  </g>
  <g class="cls-18">
    <g class="cls-18">
      <text class="cls-19" transform="translate(1017.06 890.09)"><tspan x="0" y="0">6,7</tspan></text>
    </g>
  </g>
  <g class="cls-18">
    <g class="cls-18">
      <text class="cls-6" transform="translate(1017.06 914.33)"><tspan x="0" y="0">6,8</tspan></text>
    </g>
  </g>
  <g class="cls-18">
    <g class="cls-18">
      <text class="cls-19" transform="translate(1017.06 914.33)"><tspan x="0" y="0">6,8</tspan></text>
    </g>
  </g>
  <g class="cls-18">
    <g class="cls-18">
      <text class="cls-6" transform="translate(1017.06 973.33)"><tspan x="0" y="0">7,0</tspan></text>
    </g>
    <g class="cls-18">
      <text class="cls-21" transform="translate(1017.06 973.33)"><tspan x="0" y="0">7,0</tspan></text>
    </g>
  </g>
  <g class="cls-18">
    <g class="cls-18">
      <text class="cls-9" transform="translate(1666.92 135.57)"><tspan x="0" y="0">Abud Carrillo, Jenny</tspan></text>
    </g>
  </g>
  <g class="cls-18">
    <g class="cls-18">
      <text class="cls-9" transform="translate(1666.92 162.87)"><tspan x="0" y="0">Benavides Bermúdez, Paola</tspan></text>
    </g>
  </g>
  <g class="cls-18">
    <g class="cls-18">
      <text class="cls-9" transform="translate(1666.92 189.66)"><tspan x="0" y="0">Castillo Espinoza, Eduardo</tspan></text>
    </g>
  </g>
  <g class="cls-18">
    <g class="cls-18">
      <text class="cls-9" transform="translate(1666.92 225.09)"><tspan x="0" y="0">Cortez Orellana, Felipe</tspan></text>
    </g>
  </g>
  <g class="cls-18">
    <g class="cls-18">
      <text class="cls-9" transform="translate(1668.14 260.42)"><tspan x="0" y="0">De la Sotta Lazzerini, Paola</tspan></text>
    </g>
  </g>
  <g class="cls-18">
    <g class="cls-18">
      <text class="cls-9" transform="translate(1668.14 319.02)"><tspan x="0" y="0">Domínguez González, Pablo</tspan></text>
    </g>
  </g>
  <g class="cls-18">
    <g class="cls-18">
      <text class="cls-9" transform="translate(1667.7 379.61)"><tspan x="0" y="0">Donoso Cisternas, Sergio</tspan></text>
    </g>
  </g>
  <g class="cls-18">
    <g class="cls-18">
      <text class="cls-9" transform="translate(1668.92 418.26)"><tspan x="0" y="0">Dueñas Santande</tspan></text>
    </g>
    <g class="cls-18">
      <text class="cls-15" transform="translate(1780.84 418.26)"><tspan x="0" y="0">r</tspan></text>
    </g>
    <g class="cls-18">
      <text class="cls-9" transform="translate(1785.29 418.26)"><tspan x="0" y="0">, Rodrigo</tspan></text>
    </g>
  </g>
  <g class="cls-18">
    <g class="cls-18">
      <text class="cls-9" transform="translate(1668.92 453.02)"><tspan x="0" y="0">Gatica Ramírez, Pamela</tspan></text>
    </g>
  </g>
  <g class="cls-18">
    <g class="cls-18">
      <text class="cls-9" transform="translate(1668.92 476.72)"><tspan x="0" y="0">Gómez Moya, Cristián</tspan></text>
    </g>
  </g>
  <g class="cls-18">
    <g class="cls-18">
      <text class="cls-9" transform="translate(1668.92 509.7)"><tspan x="0" y="0">Jacob Dazarola, Rubén</tspan></text>
    </g>
  </g>
  <g class="cls-18">
    <g class="cls-18">
      <text class="cls-9" transform="translate(1668.92 543.16)"><tspan x="0" y="0">Jove</tspan></text>
    </g>
    <g class="cls-18">
      <text class="cls-16" transform="translate(1699.32 543.16)"><tspan x="0" y="0" xml:space="preserve"> A</tspan></text>
    </g>
    <g class="cls-18">
      <text class="cls-9" transform="translate(1711.66 543.16)"><tspan x="0" y="0">vilés,</tspan></text>
    </g>
    <g class="cls-18">
      <text class="cls-15" transform="translate(1748.74 543.16)"><tspan x="0" y="0">T</tspan></text>
    </g>
    <g class="cls-18">
      <text class="cls-9" transform="translate(1756.15 543.16)"><tspan x="0" y="0">rinidad</tspan></text>
    </g>
  </g>
  <g class="cls-18">
    <g class="cls-18">
      <text class="cls-9" transform="translate(1668.92 560.94)"><tspan x="0" y="0">Lares López, Lorna</tspan></text>
    </g>
  </g>
  <g class="cls-18">
    <g class="cls-18">
      <text class="cls-9" transform="translate(1668.92 578.06)"><tspan x="0" y="0">Lepe Muñoz, Juan Carlos</tspan></text>
    </g>
  </g>
  <g class="cls-18">
    <g class="cls-18">
      <text class="cls-9" transform="translate(1669.95 595.18)"><tspan x="0" y="0">Maldonado de la Fuente, Felix</tspan></text>
    </g>
  </g>
  <g class="cls-18">
    <g class="cls-18">
      <text class="cls-9" transform="translate(1669.95 614.64)"><tspan x="0" y="0">Marín Pacheco,</tspan></text>
    </g>
    <g class="cls-18">
      <text class="cls-9" transform="translate(1771 614.64)"><tspan x="0" y="0">Antonio</tspan></text>
    </g>
  </g>
  <g class="cls-18">
    <g class="cls-18">
      <text class="cls-9" transform="translate(1670.08 629.07)"><tspan x="0" y="0">Molina Oyarzún, Raúl</tspan></text>
    </g>
  </g>
  <g class="cls-18">
    <g class="cls-18">
      <text class="cls-9" transform="translate(1669.99 642.76)"><tspan x="0" y="0">Mora Briones,</tspan></text>
    </g>
    <g class="cls-18">
      <text class="cls-9" transform="translate(1762.13 642.76)"><tspan x="0" y="0">Alfredo</tspan></text>
    </g>
  </g>
  <g class="cls-18">
    <g class="cls-18">
      <text class="cls-9" transform="translate(1669.99 662.58)"><tspan x="0" y="0">Morales Mujica, María Paz</tspan></text>
    </g>
  </g>
  <g class="cls-18">
    <g class="cls-18">
      <text class="cls-9" transform="translate(1670.1 682.47)"><tspan x="0" y="0">Méndez Olivares, Iván</tspan></text>
    </g>
  </g>
  <g class="cls-18">
    <g class="cls-18">
      <text class="cls-9" transform="translate(1670.06 702.46)"><tspan x="0" y="0">Nuñez Gutiérrez, Pablo</tspan></text>
    </g>
  </g>
  <g class="cls-18">
    <g class="cls-18">
      <text class="cls-9" transform="translate(1671.06 739.98)"><tspan x="0" y="0">Ode Saleh,</tspan></text>
    </g>
    <g class="cls-18">
      <text class="cls-15" transform="translate(1743.69 739.98)"><tspan x="0" y="0">V</tspan></text>
    </g>
    <g class="cls-18">
      <text class="cls-9" transform="translate(1751.84 739.98)"><tspan x="0" y="0">erónica</tspan></text>
    </g>
  </g>
  <g class="cls-18">
    <g class="cls-18">
      <text class="cls-9" transform="translate(1670.88 783.3)"><tspan x="0" y="0">Osses Flores, Roberto</tspan></text>
    </g>
  </g>
  <g class="cls-18">
    <g class="cls-18">
      <text class="cls-9" transform="translate(1671.02 810.39)"><tspan x="0" y="0">Pagueguy Fenne</tspan></text>
    </g>
    <g class="cls-18">
      <text class="cls-15" transform="translate(1777.74 810.39)"><tspan x="0" y="0">r</tspan></text>
    </g>
    <g class="cls-18">
      <text class="cls-9" transform="translate(1782.19 810.39)"><tspan x="0" y="0">, Sebastián</tspan></text>
    </g>
  </g>
  <g class="cls-18">
    <g class="cls-18">
      <text class="cls-9" transform="translate(1671.02 829.39)"><tspan x="0" y="0">Perea Morales, René</tspan></text>
    </g>
  </g>
  <g class="cls-18">
    <g class="cls-18">
      <text class="cls-9" transform="translate(1671.02 844.41)"><tspan x="0" y="0">Perelli Soto, Bruno</tspan></text>
    </g>
  </g>
  <g class="cls-18">
    <g class="cls-18">
      <text class="cls-9" transform="translate(1671.02 860.64)"><tspan x="0" y="0">Pradenas Guentherodt, Gabriela</tspan></text>
    </g>
  </g>
  <g class="cls-18">
    <g class="cls-18">
      <text class="cls-9" transform="translate(1671.02 876.85)"><tspan x="0" y="0">Reyes León, Daniel</tspan></text>
    </g>
  </g>
  <g class="cls-18">
    <g class="cls-18">
      <text class="cls-9" transform="translate(1671.47 891.89)"><tspan x="0" y="0">Ruiz Balart, Macarena</tspan></text>
    </g>
  </g>
  <g class="cls-18">
    <g class="cls-18">
      <text class="cls-9" transform="translate(1671.47 903.67)"><tspan x="0" y="0">Santibañez Boric, Mónica</tspan></text>
    </g>
  </g>
  <g class="cls-18">
    <g class="cls-18">
      <text class="cls-9" transform="translate(1671.47 917.02)"><tspan x="0" y="0">Silva Roquefort, Rebeca</tspan></text>
    </g>
  </g>
  <g class="cls-18">
    <g class="cls-18">
      <text class="cls-9" transform="translate(1672.43 942.09)"><tspan x="0" y="0">Soto Calquín, Leonardo</tspan></text>
    </g>
  </g>
  <g class="cls-18">
    <g class="cls-18">
      <text class="cls-9" transform="translate(1671.94 959.82)"><tspan x="0" y="0">Stange Marcus, Hans</tspan></text>
    </g>
  </g>
  <g class="cls-18">
    <g class="cls-18">
      <text class="cls-14" transform="translate(1672.91 977.77)"><tspan x="0" y="0">T</tspan></text>
    </g>
    <g class="cls-18">
      <text class="cls-9" transform="translate(1680.06 977.77)"><tspan x="0" y="0">apia Reyes, Mauricio</tspan></text>
    </g>
  </g>
  <g class="cls-18">
    <g class="cls-18">
      <text class="cls-1" transform="translate(1673.92 996.39)"><tspan x="0" y="0">V</tspan></text>
    </g>
    <g class="cls-18">
      <text class="cls-9" transform="translate(1682.57 996.39)"><tspan x="0" y="0">ico Sánchez, Mauricio</tspan></text>
    </g>
  </g>
  <g class="cls-18">
    <g class="cls-18">
      <text class="cls-12" transform="translate(1671.94 1026.33)"><tspan x="0" y="0">W</tspan></text>
    </g>
    <g class="cls-18">
      <text class="cls-9" transform="translate(1684.28 1026.33)"><tspan x="0" y="0">echsler Pizarro,</tspan></text>
    </g>
    <g class="cls-18">
      <text class="cls-9" transform="translate(1786.84 1026.33)"><tspan x="0" y="0">Andrea</tspan></text>
    </g>
  </g>
  <g class="cls-18">
    <g class="cls-18">
      <text class="cls-7" transform="translate(1670.63 1060.38)"><tspan x="0" y="0">Y</tspan></text>
    </g>
    <g class="cls-18">
      <text class="cls-9" transform="translate(1678.54 1060.38)"><tspan x="0" y="0">oung</tspan></text>
    </g>
    <g class="cls-18">
      <text class="cls-9" transform="translate(1714.34 1060.38)"><tspan x="0" y="0">Araya, Mariana</tspan></text>
    </g>
  </g>
  <g class="cls-18">
    <g class="cls-18">
      <text class="cls-9" transform="translate(1671.47 1082.78)"><tspan x="0" y="0">Zorzano Betancourt, Osvaldo</tspan></text>
    </g>
  </g>
  <g>
    <g class="cls-18">
      <g class="cls-18">
        <text class="cls-22" transform="translate(889.48 26.6)"><tspan x="0" y="0">Nota Proyecto</tspan></text>
      </g>
    </g>
    <g class="cls-18">
      <g class="cls-18">
        <text class="cls-22" transform="translate(1592.4 26.6)"><tspan x="0" y="0">Profesor Guía</tspan></text>
      </g>
    </g>
    <g class="cls-18">
      <g class="cls-18">
        <text class="cls-22" transform="translate(106.9 26.86)"><tspan x="0" y="0">Título Profesional</tspan></text>
      </g>
    </g>
  </g>
  <g class="cls-18">
    <g class="cls-18">
      <text class="cls-21" transform="translate(1017.37 192.62)"><tspan x="0" y="0">4,0</tspan></text>
    </g>
  </g>
</svg>