<?xml version="1.0" encoding="UTF-8"?>
<svg id="Layer_1" data-name="Layer 1" xmlns="http://www.w3.org/2000/svg" viewBox="0 0 1981.15 964.9">
  <defs>
    <style>
      .cls-1 {
        letter-spacing: -.02em;
      }

      .cls-1, .cls-2, .cls-3, .cls-4, .cls-5, .cls-6, .cls-7, .cls-8, .cls-9, .cls-10, .cls-11, .cls-12, .cls-13, .cls-14, .cls-15, .cls-16, .cls-17, .cls-18, .cls-19, .cls-20 {
        isolation: isolate;
      }

      .cls-1, .cls-2, .cls-4, .cls-5, .cls-7, .cls-8, .cls-9, .cls-10, .cls-11, .cls-12, .cls-13, .cls-14, .cls-15, .cls-16, .cls-17, .cls-18, .cls-19, .cls-20 {
        fill: #000;
        font-family: ArialMT, Arial;
      }

      .cls-1, .cls-16 {
        font-size: 22.38px;
      }

      .cls-21 {
        fill: #eaeaea;
      }

      .cls-21, .cls-22, .cls-23, .cls-24, .cls-25, .cls-26, .cls-27 {
        stroke-width: 0px;
      }

      .cls-2 {
        font-size: 21.63px;
      }

      .cls-3 {
        fill: #7b7b7b;
        font-family: Arial-BoldMT, Arial;
        font-size: 24px;
        font-weight: 700;
      }

      .cls-4 {
        font-size: 15.45px;
      }

      .cls-28 {
        stroke: #fff;
      }

      .cls-28, .cls-29, .cls-30, .cls-31, .cls-32, .cls-33, .cls-34, .cls-35, .cls-36, .cls-37, .cls-38, .cls-39, .cls-40, .cls-41, .cls-42 {
        fill: none;
      }

      .cls-5 {
        font-size: 16.31px;
      }

      .cls-29, .cls-38 {
        stroke-dasharray: 0 0 0 0 0 0 1.99 1.99;
      }

      .cls-29, .cls-42 {
        stroke: #0037ff;
      }

      .cls-7 {
        font-size: 15.64px;
      }

      .cls-8 {
        font-size: 22.53px;
      }

      .cls-30, .cls-35 {
        stroke: #002691;
      }

      .cls-9 {
        font-size: 15.71px;
      }

      .cls-10 {
        font-size: 16.77px;
      }

      .cls-31, .cls-35, .cls-36, .cls-37 {
        stroke-dasharray: 0 0 0 0 0 0 2 2;
      }

      .cls-31, .cls-39 {
        stroke: #ff7f0e;
      }

      .cls-32, .cls-38 {
        stroke: #0af;
      }

      .cls-11 {
        font-size: 16.39px;
      }

      .cls-12 {
        font-size: 17.29px;
      }

      .cls-13 {
        font-size: 16.26px;
      }

      .cls-14 {
        font-size: 15.77px;
      }

      .cls-15 {
        font-size: 15.79px;
      }

      .cls-22 {
        fill: #ff7f0e;
      }

      .cls-23 {
        fill: #0037ff;
      }

      .cls-24 {
        fill: #0af;
      }

      .cls-25 {
        fill: #ff3c00;
      }

      .cls-17 {
        font-size: 17.29px;
      }

      .cls-33, .cls-37 {
        stroke: #ff3c00;
      }

      .cls-26 {
        fill: #002691;
      }

      .cls-18 {
        font-size: 12.61px;
      }

      .cls-34, .cls-36 {
        stroke: #fbc217;
      }

      .cls-19 {
        font-size: 16.82px;
      }

      .cls-20 {
        font-size: 21.2px;
      }

      .cls-40 {
        stroke: #fdc214;
      }

      .cls-27 {
        fill: #ffc200;
      }

      .cls-41 {
        stroke: #000;
      }
    </style>
  </defs>
  <g id="Layer_3" data-name="Layer 3">
    <rect class="cls-21" x="164.16" y="74.9" width="613.9" height="841.41"/>
    <rect class="cls-21" x="1366.75" y="74.9" width="613.9" height="841.41"/>
  </g>
  <g id="Layer_2" data-name="Layer 2">
    <g>
      <line class="cls-32" x1="316.11" y1="915.69" x2="316.11" y2="914.43"/>
      <line class="cls-38" x1="316.11" y1="911.91" x2="316.11" y2="93.5"/>
      <line class="cls-32" x1="316.11" y1="92.25" x2="316.11" y2="90.99"/>
    </g>
    <g>
      <line class="cls-42" x1="618.76" y1="90.84" x2="618.76" y2="92.1"/>
      <line class="cls-29" x1="618.76" y1="94.61" x2="618.76" y2="913.02"/>
      <line class="cls-42" x1="618.76" y1="914.28" x2="618.76" y2="915.54"/>
    </g>
    <g>
      <line class="cls-30" x1="920.77" y1="90.99" x2="920.77" y2="92.25"/>
      <line class="cls-35" x1="920.77" y1="94.78" x2="920.77" y2="775.71"/>
      <line class="cls-30" x1="920.77" y1="776.97" x2="920.77" y2="778.23"/>
    </g>
    <line class="cls-31" x1="1525.9" y1="146.12" x2="1525.9" y2="778.4"/>
  </g>
  <path class="cls-41" d="M156.6,916.32h8.2V74.9"/>
  <line class="cls-41" x1="164.16" y1="916.32" x2="156.6" y2="916.32"/>
  <g class="cls-6">
    <g class="cls-6">
      <text class="cls-15" transform="translate(131.08 919.33)"><tspan x="0" y="0">4,0</tspan></text>
    </g>
  </g>
  <line class="cls-41" x1="164.16" y1="861.34" x2="156.6" y2="861.34"/>
  <g class="cls-6">
    <g class="cls-6">
      <text class="cls-15" transform="translate(131.08 866.49)"><tspan x="0" y="0">4,2</tspan></text>
    </g>
  </g>
  <line class="cls-41" x1="164.16" y1="806.36" x2="156.6" y2="806.36"/>
  <g class="cls-6">
    <g class="cls-6">
      <text class="cls-7" transform="translate(131.08 809.42)"><tspan x="0" y="0">4,4</tspan></text>
    </g>
  </g>
  <line class="cls-41" x1="164.16" y1="751.38" x2="156.6" y2="751.38"/>
  <g class="cls-6">
    <g class="cls-6">
      <text class="cls-14" transform="translate(130.89 754.39)"><tspan x="0" y="0">4,6</tspan></text>
    </g>
  </g>
  <line class="cls-41" x1="164.16" y1="696.4" x2="156.6" y2="696.4"/>
  <g class="cls-6">
    <g class="cls-6">
      <text class="cls-14" transform="translate(130.89 699.41)"><tspan x="0" y="0">4,8</tspan></text>
    </g>
  </g>
  <line class="cls-41" x1="164.16" y1="641.42" x2="156.6" y2="641.42"/>
  <g class="cls-6">
    <g class="cls-6">
      <text class="cls-13" transform="translate(130.21 644.27)"><tspan x="0" y="0">5,0</tspan></text>
    </g>
  </g>
  <line class="cls-41" x1="164.16" y1="586.44" x2="156.6" y2="586.44"/>
  <g class="cls-6">
    <g class="cls-6">
      <text class="cls-10" transform="translate(129.5 589.13)"><tspan x="0" y="0">5,2</tspan></text>
    </g>
  </g>
  <line class="cls-41" x1="164.16" y1="531.46" x2="156.6" y2="531.46"/>
  <g class="cls-6">
    <g class="cls-6">
      <text class="cls-5" transform="translate(130.14 534.3)"><tspan x="0" y="0">5,4</tspan></text>
    </g>
  </g>
  <line class="cls-41" x1="164.16" y1="476.48" x2="156.6" y2="476.48"/>
  <g class="cls-6">
    <g class="cls-6">
      <text class="cls-19" transform="translate(129.43 479.15)"><tspan x="0" y="0">5,6</tspan></text>
    </g>
  </g>
  <line class="cls-41" x1="164.16" y1="421.5" x2="156.6" y2="421.5"/>
  <g class="cls-6">
    <g class="cls-6">
      <text class="cls-12" transform="translate(128.78 426.02)"><tspan x="0" y="0">5,8</tspan></text>
    </g>
  </g>
  <line class="cls-41" x1="164.16" y1="366.52" x2="156.6" y2="366.52"/>
  <g class="cls-6">
    <g class="cls-6">
      <text class="cls-17" transform="translate(128.78 373.04)"><tspan x="0" y="0">6,0</tspan></text>
    </g>
  </g>
  <g>
    <line class="cls-41" x1="164.16" y1="309.71" x2="154.89" y2="309.71"/>
    <g class="cls-6">
      <g class="cls-6">
        <text class="cls-4" transform="translate(128.78 314.66)"><tspan x="0" y="0">6,2</tspan></text>
      </g>
    </g>
  </g>
  <g>
    <line class="cls-41" x1="164.16" y1="254.56" x2="154.73" y2="254.56"/>
    <g class="cls-6">
      <g class="cls-6">
        <text class="cls-9" transform="translate(128.18 259.59)"><tspan x="0" y="0">6,4</tspan></text>
      </g>
    </g>
  </g>
  <g>
    <line class="cls-41" x1="164.16" y1="199.58" x2="154.73" y2="199.58"/>
    <g class="cls-6">
      <g class="cls-6">
        <text class="cls-9" transform="translate(128.18 204.61)"><tspan x="0" y="0">6,6</tspan></text>
      </g>
    </g>
  </g>
  <g>
    <line class="cls-41" x1="164.16" y1="144.6" x2="154.73" y2="144.6"/>
    <g class="cls-6">
      <g class="cls-6">
        <text class="cls-9" transform="translate(128.18 149.63)"><tspan x="0" y="0">6,8</tspan></text>
      </g>
    </g>
  </g>
  <g>
    <line class="cls-41" x1="164.93" y1="88.37" x2="155.1" y2="88.37"/>
    <g class="cls-6">
      <g class="cls-6">
        <text class="cls-11" transform="translate(127.41 93.61)"><tspan x="0" y="0">7,0</tspan></text>
      </g>
    </g>
  </g>
  <g class="cls-6">
    <g class="cls-6">
      <text class="cls-3" transform="translate(0 20.59)"><tspan x="0" y="0">Nota Proyecto</tspan></text>
    </g>
  </g>
  <path class="cls-41" d="M164.79,923.26v-6.94h1815.86v6.94"/>
  <line class="cls-41" x1="316.11" y1="915.69" x2="316.11" y2="923.26"/>
  <g>
    <g class="cls-6">
      <text class="cls-16" transform="translate(229.53 957.27)"><tspan x="0" y="0">Diseñadora</tspan></text>
    </g>
    <g class="cls-6">
      <text class="cls-1" transform="translate(351.11 957.51) scale(.88 1)"><tspan x="0" y="0">V</tspan></text>
    </g>
    <g class="cls-6">
      <text class="cls-16" transform="translate(363.82 957.51)"><tspan x="0" y="0" xml:space="preserve"> y M</tspan></text>
    </g>
  </g>
  <line class="cls-41" x1="920.77" y1="916.32" x2="920.77" y2="923.89"/>
  <g class="cls-6">
    <g class="cls-6">
      <text class="cls-2" transform="translate(868.79 957.27)"><tspan x="0" y="0">Diseñadora</tspan></text>
    </g>
  </g>
  <line class="cls-41" x1="1526.06" y1="916.32" x2="1526.06" y2="923.89"/>
  <line class="cls-41" x1="618.76" y1="916.72" x2="618.76" y2="924.28"/>
  <g class="cls-6">
    <g class="cls-6">
      <text class="cls-20" transform="translate(543.97 957.27)"><tspan x="0" y="0">Diseñadora I y S</tspan></text>
    </g>
  </g>
  <g>
    <g class="cls-6">
      <text class="cls-16" transform="translate(1747.64 957.39)"><tspan x="0" y="0">Diseñador</tspan></text>
    </g>
    <g class="cls-6">
      <text class="cls-1" transform="translate(1857.22 957.64) scale(.88 1)"><tspan x="0" y="0">V</tspan></text>
    </g>
    <g class="cls-6">
      <text class="cls-16" transform="translate(1869.94 957.64)"><tspan x="0" y="0" xml:space="preserve"> y M</tspan></text>
    </g>
  </g>
  <g class="cls-6">
    <g class="cls-6">
      <text class="cls-20" transform="translate(1454.06 956.6)"><tspan x="0" y="0">Diseñador I y S</tspan></text>
    </g>
  </g>
  <line class="cls-32" x1="300.98" y1="90.99" x2="329.99" y2="90.99"/>
  <line class="cls-32" x1="300.98" y1="915.69" x2="329.99" y2="915.69"/>
  <rect class="cls-24" x="300.98" y="228.44" width="29" height="261.16"/>
  <line class="cls-28" x1="300.98" y1="365.89" x2="329.99" y2="365.89"/>
  <g class="cls-6">
    <g class="cls-6">
      <text class="cls-18" transform="translate(335.03 90.99)"><tspan x="0" y="0">7</tspan></text>
    </g>
  </g>
  <g class="cls-6">
    <g class="cls-6">
      <text class="cls-18" transform="translate(335.03 915.69)"><tspan x="0" y="0">4</tspan></text>
    </g>
  </g>
  <g class="cls-6">
    <g class="cls-6">
      <text class="cls-18" transform="translate(335.03 369.68)"><tspan x="0" y="0">6</tspan></text>
    </g>
  </g>
  <g class="cls-6">
    <g class="cls-6">
      <text class="cls-18" transform="translate(271.93 489.6)"><tspan x="0" y="0">5,55</tspan></text>
    </g>
  </g>
  <g class="cls-6">
    <g class="cls-6">
      <text class="cls-18" transform="translate(279.04 237.35)"><tspan x="0" y="0">6,5</tspan></text>
    </g>
  </g>
  <line class="cls-30" x1="906.27" y1="90.99" x2="935.27" y2="90.99"/>
  <line class="cls-30" x1="906.27" y1="778.24" x2="935.27" y2="778.24"/>
  <rect class="cls-26" x="906.27" y="187.21" width="29" height="274.9"/>
  <line class="cls-28" x1="906.27" y1="365.89" x2="935.27" y2="365.89"/>
  <g class="cls-6">
    <g class="cls-6">
      <text class="cls-18" transform="translate(940.32 90.99)"><tspan x="0" y="0">7</tspan></text>
    </g>
  </g>
  <g class="cls-6">
    <g class="cls-6">
      <text class="cls-18" transform="translate(940.32 778.24)"><tspan x="0" y="0">4,5</tspan></text>
    </g>
  </g>
  <g class="cls-6">
    <g class="cls-6">
      <text class="cls-18" transform="translate(940.32 370.94)"><tspan x="0" y="0">6</tspan></text>
    </g>
  </g>
  <g class="cls-6">
    <g class="cls-6">
      <text class="cls-18" transform="translate(876.68 462.11)"><tspan x="0" y="0">5,65</tspan></text>
    </g>
  </g>
  <g class="cls-6">
    <g class="cls-6">
      <text class="cls-18" transform="translate(876.95 196.4)"><tspan x="0" y="0">6,65</tspan></text>
    </g>
  </g>
  <line class="cls-39" x1="1511.4" y1="145.97" x2="1540.41" y2="145.97"/>
  <line class="cls-39" x1="1511.4" y1="778.24" x2="1540.41" y2="778.24"/>
  <rect class="cls-22" x="1511.4" y="338.4" width="29" height="123.71"/>
  <line class="cls-28" x1="1511.4" y1="393.38" x2="1540.41" y2="393.38"/>
  <g class="cls-6">
    <g class="cls-6">
      <text class="cls-18" transform="translate(1545.45 145.97)"><tspan x="0" y="0">6,8</tspan></text>
    </g>
  </g>
  <g class="cls-6">
    <g class="cls-6">
      <text class="cls-18" transform="translate(1545.45 778.24)"><tspan x="0" y="0">4,5</tspan></text>
    </g>
  </g>
  <g class="cls-6">
    <g class="cls-6">
      <text class="cls-18" transform="translate(1545.45 398.43)"><tspan x="0" y="0">5,9</tspan></text>
    </g>
  </g>
  <g class="cls-6">
    <g class="cls-6">
      <text class="cls-18" transform="translate(1481.82 462.11)"><tspan x="0" y="0">5,65</tspan></text>
    </g>
  </g>
  <g class="cls-6">
    <g class="cls-6">
      <text class="cls-18" transform="translate(1491.92 347.66)"><tspan x="0" y="0">6,1</tspan></text>
    </g>
  </g>
  <line class="cls-42" x1="604.26" y1="90.84" x2="633.26" y2="90.84"/>
  <line class="cls-42" x1="604.26" y1="915.54" x2="633.26" y2="915.54"/>
  <rect class="cls-23" x="604.26" y="187.06" width="29" height="316.14"/>
  <line class="cls-28" x1="604.26" y1="365.74" x2="633.26" y2="365.74"/>
  <g class="cls-6">
    <g class="cls-6">
      <text class="cls-18" transform="translate(637.71 90.99)"><tspan x="0" y="0">7</tspan></text>
    </g>
  </g>
  <g class="cls-6">
    <g class="cls-6">
      <text class="cls-18" transform="translate(637.71 915.69)"><tspan x="0" y="0">4</tspan></text>
    </g>
  </g>
  <g class="cls-6">
    <g class="cls-6">
      <text class="cls-18" transform="translate(638.97 368.42)"><tspan x="0" y="0">6</tspan></text>
    </g>
  </g>
  <g class="cls-6">
    <g class="cls-6">
      <text class="cls-18" transform="translate(581.09 502.08)"><tspan x="0" y="0">5,5</tspan></text>
    </g>
  </g>
  <g class="cls-6">
    <g class="cls-6">
      <text class="cls-18" transform="translate(577.23 198.56)"><tspan x="0" y="0">6,65</tspan></text>
    </g>
  </g>
  <g>
    <line class="cls-34" x1="1829.29" y1="227.37" x2="1829.29" y2="228.63"/>
    <line class="cls-36" x1="1829.29" y1="231.15" x2="1829.29" y2="912.09"/>
    <line class="cls-34" x1="1829.29" y1="913.36" x2="1829.29" y2="914.62"/>
  </g>
  <line class="cls-41" x1="1829.25" y1="915.69" x2="1829.25" y2="923.26"/>
  <line class="cls-40" x1="1814.79" y1="227.37" x2="1843.79" y2="227.37"/>
  <line class="cls-34" x1="1814.79" y1="914.62" x2="1843.79" y2="914.62"/>
  <rect class="cls-27" x="1814.79" y="364.82" width="29" height="137.45"/>
  <line class="cls-28" x1="1814.79" y1="419.8" x2="1843.79" y2="419.8"/>
  <g class="cls-6">
    <g class="cls-6">
      <text class="cls-18" transform="translate(1848.84 227.37)"><tspan x="0" y="0">6.5</tspan></text>
    </g>
  </g>
  <g class="cls-6">
    <g class="cls-6">
      <text class="cls-18" transform="translate(1848.84 914.62)"><tspan x="0" y="0">4</tspan></text>
    </g>
  </g>
  <g class="cls-6">
    <g class="cls-6">
      <text class="cls-18" transform="translate(1848.84 423.58)"><tspan x="0" y="0">5.8</tspan></text>
    </g>
  </g>
  <g class="cls-6">
    <g class="cls-6">
      <text class="cls-18" transform="translate(1792.81 501.01)"><tspan x="0" y="0">5.5</tspan></text>
    </g>
  </g>
  <g class="cls-6">
    <g class="cls-6">
      <text class="cls-18" transform="translate(1804.7 374.91)"><tspan x="0" y="0">6</tspan></text>
    </g>
  </g>
  <line class="cls-37" x1="1224.61" y1="90.99" x2="1224.61" y2="723.26"/>
  <line class="cls-41" x1="1225.24" y1="915.69" x2="1225.24" y2="923.26"/>
  <g class="cls-6">
    <g class="cls-6">
      <text class="cls-8" transform="translate(1172.23 957.27)"><tspan x="0" y="0">Diseñador</tspan></text>
    </g>
  </g>
  <line class="cls-33" x1="1210.11" y1="90.99" x2="1239.11" y2="90.99"/>
  <line class="cls-33" x1="1210.11" y1="723.26" x2="1239.11" y2="723.26"/>
  <rect class="cls-25" x="1210.11" y="310.91" width="29" height="192.43"/>
  <line class="cls-28" x1="1210.11" y1="365.89" x2="1239.11" y2="365.89"/>
  <g class="cls-6">
    <g class="cls-6">
      <text class="cls-18" transform="translate(1244.16 90.99)"><tspan x="0" y="0">7</tspan></text>
    </g>
  </g>
  <g class="cls-6">
    <g class="cls-6">
      <text class="cls-18" transform="translate(1244.16 723.26)"><tspan x="0" y="0">4,7</tspan></text>
    </g>
  </g>
  <g class="cls-6">
    <g class="cls-6">
      <text class="cls-18" transform="translate(1244.16 368.42)"><tspan x="0" y="0">6</tspan></text>
    </g>
  </g>
  <g class="cls-6">
    <g class="cls-6">
      <text class="cls-18" transform="translate(1187.54 503.34)"><tspan x="0" y="0">5,5</tspan></text>
    </g>
  </g>
  <g class="cls-6">
    <g class="cls-6">
      <text class="cls-18" transform="translate(1188.17 321)"><tspan x="0" y="0">6,2</tspan></text>
    </g>
  </g>
</svg>