<?xml version="1.0" encoding="UTF-8"?>
<svg xmlns="http://www.w3.org/2000/svg" viewBox="0 0 1520.16 740.28">
  <defs>
    <style>
      .cls-1 {
        fill: #0037ff;
      }

      .cls-1, .cls-2, .cls-3, .cls-4, .cls-5, .cls-6, .cls-7 {
        stroke-width: 0px;
      }

      .cls-8 {
        letter-spacing: -.02em;
      }

      .cls-8, .cls-9, .cls-10, .cls-11 {
        isolation: isolate;
      }

      .cls-8, .cls-11 {
        font-family: ArialMT, Arial;
        font-size: 10px;
      }

      .cls-12, .cls-13, .cls-14, .cls-15, .cls-16, .cls-17, .cls-18, .cls-19, .cls-20, .cls-21, .cls-22, .cls-23, .cls-24, .cls-25, .cls-26 {
        fill: none;
      }

      .cls-12, .cls-21 {
        stroke-dasharray: 0 0 2 2;
      }

      .cls-12, .cls-24 {
        stroke: #ff3c00;
      }

      .cls-13, .cls-16 {
        stroke: #0037ff;
      }

      .cls-13, .cls-22 {
        stroke-dasharray: 0 0 1.99 1.99;
      }

      .cls-14 {
        stroke: #fff;
      }

      .cls-15 {
        stroke-dasharray: 0 0 2 2;
      }

      .cls-15, .cls-17 {
        stroke: #fbc217;
      }

      .cls-2 {
        fill: #0af;
      }

      .cls-10 {
        fill: #7b7b7b;
        font-family: Arial-BoldMT, Arial;
        font-size: 12px;
        font-weight: 700;
      }

      .cls-18, .cls-21 {
        stroke: #ff7f0e;
      }

      .cls-3 {
        fill: #ff7f0e;
      }

      .cls-19 {
        stroke-dasharray: 0 0 2 2;
      }

      .cls-19, .cls-20 {
        stroke: #002691;
      }

      .cls-22, .cls-25 {
        stroke: #0af;
      }

      .cls-4 {
        fill: #002691;
      }

      .cls-23 {
        stroke: #fdc214;
      }

      .cls-5 {
        fill: #ffc200;
      }

      .cls-26 {
        stroke: #000;
      }

      .cls-6 {
        fill: #eaeaea;
      }

      .cls-7 {
        fill: #ff3c00;
      }
    </style>
  </defs>
  <g id="Layer_3" data-name="Layer 3">
    <rect class="cls-6" x="79.16" y="53.37" width="486.83" height="667.25"/>
    <rect class="cls-6" x="1032.83" y="53.37" width="486.83" height="667.25"/>
  </g>
  <g id="Layer_2" data-name="Layer 2">
    <g>
      <line class="cls-25" x1="199.66" y1="720.13" x2="199.66" y2="719.13"/>
      <line class="cls-22" x1="199.66" y1="717.13" x2="199.66" y2="68.12"/>
      <line class="cls-25" x1="199.66" y1="67.13" x2="199.66" y2="66.13"/>
    </g>
    <g>
      <line class="cls-16" x1="439.66" y1="66.01" x2="439.66" y2="67.01"/>
      <line class="cls-13" x1="439.66" y1="69" x2="439.66" y2="718.01"/>
      <line class="cls-16" x1="439.66" y1="719.01" x2="439.66" y2="720.01"/>
    </g>
    <g>
      <line class="cls-20" x1="679.16" y1="66.13" x2="679.16" y2="67.13"/>
      <line class="cls-19" x1="679.16" y1="69.13" x2="679.16" y2="609.12"/>
      <line class="cls-20" x1="679.16" y1="610.12" x2="679.16" y2="611.12"/>
    </g>
    <line class="cls-21" x1="1159.04" y1="109.85" x2="1159.04" y2="611.25"/>
  </g>
  <g id="Layer_1" data-name="Layer 1">
    <path class="cls-26" d="M73.16,720.63h6.5V53.37"/>
    <g>
      <line class="cls-26" x1="79.16" y1="720.63" x2="73.16" y2="720.63"/>
      <g class="cls-9">
        <text class="cls-11" transform="translate(56.26 723.83)"><tspan x="0" y="0">4,0</tspan></text>
      </g>
    </g>
    <g>
      <line class="cls-26" x1="79.16" y1="677.03" x2="73.16" y2="677.03"/>
      <g class="cls-9">
        <text class="cls-11" transform="translate(56.26 680.23)"><tspan x="0" y="0">4,2</tspan></text>
      </g>
    </g>
    <g>
      <line class="cls-26" x1="79.16" y1="633.43" x2="73.16" y2="633.43"/>
      <g class="cls-9">
        <text class="cls-11" transform="translate(56.26 636.63)"><tspan x="0" y="0">4,4</tspan></text>
      </g>
    </g>
    <g>
      <line class="cls-26" x1="79.16" y1="589.83" x2="73.16" y2="589.83"/>
      <g class="cls-9">
        <text class="cls-11" transform="translate(56.26 593.03)"><tspan x="0" y="0">4,6</tspan></text>
      </g>
    </g>
    <g>
      <line class="cls-26" x1="79.16" y1="546.23" x2="73.16" y2="546.23"/>
      <g class="cls-9">
        <text class="cls-11" transform="translate(56.26 549.43)"><tspan x="0" y="0">4,8</tspan></text>
      </g>
    </g>
    <g>
      <line class="cls-26" x1="79.16" y1="502.63" x2="73.16" y2="502.63"/>
      <g class="cls-9">
        <text class="cls-11" transform="translate(56.26 505.83)"><tspan x="0" y="0">5,0</tspan></text>
      </g>
    </g>
    <g>
      <line class="cls-26" x1="79.16" y1="459.03" x2="73.16" y2="459.03"/>
      <g class="cls-9">
        <text class="cls-11" transform="translate(56.26 462.23)"><tspan x="0" y="0">5,2</tspan></text>
      </g>
    </g>
    <g>
      <line class="cls-26" x1="79.16" y1="415.43" x2="73.16" y2="415.43"/>
      <g class="cls-9">
        <text class="cls-11" transform="translate(56.26 418.63)"><tspan x="0" y="0">5,4</tspan></text>
      </g>
    </g>
    <g>
      <line class="cls-26" x1="79.16" y1="371.83" x2="73.16" y2="371.83"/>
      <g class="cls-9">
        <text class="cls-11" transform="translate(56.26 375.03)"><tspan x="0" y="0">5,6</tspan></text>
      </g>
    </g>
    <g>
      <line class="cls-26" x1="79.16" y1="328.23" x2="73.16" y2="328.23"/>
      <g class="cls-9">
        <text class="cls-11" transform="translate(56.26 331.43)"><tspan x="0" y="0">5,8</tspan></text>
      </g>
    </g>
    <g>
      <line class="cls-26" x1="79.16" y1="284.63" x2="73.16" y2="284.63"/>
      <g class="cls-9">
        <text class="cls-11" transform="translate(56.26 287.83)"><tspan x="0" y="0">6,0</tspan></text>
      </g>
    </g>
    <g>
      <line class="cls-26" x1="79.16" y1="241.03" x2="73.16" y2="241.03"/>
      <g class="cls-9">
        <text class="cls-11" transform="translate(56.26 244.23)"><tspan x="0" y="0">6,2</tspan></text>
      </g>
    </g>
    <g>
      <line class="cls-26" x1="79.16" y1="197.43" x2="73.16" y2="197.43"/>
      <g class="cls-9">
        <text class="cls-11" transform="translate(56.26 200.63)"><tspan x="0" y="0">6,4</tspan></text>
      </g>
    </g>
    <g>
      <line class="cls-26" x1="79.16" y1="153.83" x2="73.16" y2="153.83"/>
      <g class="cls-9">
        <text class="cls-11" transform="translate(56.26 157.03)"><tspan x="0" y="0">6,6</tspan></text>
      </g>
    </g>
    <g>
      <line class="cls-26" x1="79.16" y1="110.23" x2="73.16" y2="110.23"/>
      <g class="cls-9">
        <text class="cls-11" transform="translate(56.26 113.43)"><tspan x="0" y="0">6,8</tspan></text>
      </g>
    </g>
    <g>
      <line class="cls-26" x1="79.16" y1="66.63" x2="73.16" y2="66.63"/>
      <g class="cls-9">
        <text class="cls-11" transform="translate(56.26 69.83)"><tspan x="0" y="0">7,0</tspan></text>
      </g>
    </g>
    <g class="cls-9">
      <text class="cls-10" transform="translate(0 10.3)"><tspan x="0" y="0">Nota Proyecto</tspan></text>
    </g>
    <path class="cls-26" d="M79.66,726.13v-5.5h1440v5.5"/>
    <g>
      <line class="cls-26" x1="199.66" y1="720.13" x2="199.66" y2="726.13"/>
      <g class="cls-9">
        <text class="cls-11" transform="translate(91.63 736.23)"><tspan x="0" y="0">Diseñadora con mención en </tspan></text>
        <text class="cls-8" transform="translate(218.93 736.23)"><tspan x="0" y="0">V</tspan></text>
        <text class="cls-11" transform="translate(225.42 736.23)"><tspan x="0" y="0">isualidad y Medios</tspan></text>
      </g>
    </g>
    <g>
      <line class="cls-26" x1="679.16" y1="720.63" x2="679.16" y2="726.63"/>
      <g class="cls-9">
        <text class="cls-11" transform="translate(653.59 736.73)"><tspan x="0" y="0">Diseñadora</tspan></text>
      </g>
    </g>
    <g>
      <line class="cls-26" x1="1159.16" y1="720.63" x2="1159.16" y2="726.63"/>
      <g class="cls-9">
        <text class="cls-11" transform="translate(1059.39 736.73)"><tspan x="0" y="0">Diseñador con mención Industrial y Servicios</tspan></text>
      </g>
    </g>
    <g>
      <line class="cls-26" x1="439.66" y1="720.94" x2="439.66" y2="726.94"/>
      <g class="cls-9">
        <text class="cls-11" transform="translate(337.11 737.04)"><tspan x="0" y="0">Diseñadora con mención Industrial y Servicios</tspan></text>
      </g>
    </g>
    <line class="cls-25" x1="187.66" y1="66.13" x2="210.66" y2="66.13"/>
    <line class="cls-25" x1="187.66" y1="720.13" x2="210.66" y2="720.13"/>
    <rect class="cls-2" x="187.66" y="175.13" width="23" height="207.1"/>
    <line class="cls-14" x1="187.66" y1="284.13" x2="210.66" y2="284.13"/>
    <g class="cls-9">
      <text class="cls-11" transform="translate(214.66 66.13)"><tspan x="0" y="0">7</tspan></text>
    </g>
    <g class="cls-9">
      <text class="cls-11" transform="translate(214.66 720.13)"><tspan x="0" y="0">4</tspan></text>
    </g>
    <g class="cls-9">
      <text class="cls-11" transform="translate(214.66 287.13)"><tspan x="0" y="0">6</tspan></text>
    </g>
    <g class="cls-9">
      <text class="cls-11" transform="translate(164.62 382.23)"><tspan x="0" y="0">5,55</tspan></text>
    </g>
    <g class="cls-9">
      <text class="cls-11" transform="translate(170.26 182.19)"><tspan x="0" y="0">6,5</tspan></text>
    </g>
    <line class="cls-20" x1="667.66" y1="66.13" x2="690.66" y2="66.13"/>
    <line class="cls-20" x1="667.66" y1="611.13" x2="690.66" y2="611.13"/>
    <rect class="cls-4" x="667.66" y="142.43" width="23" height="218"/>
    <line class="cls-14" x1="667.66" y1="284.13" x2="690.66" y2="284.13"/>
    <g class="cls-9">
      <text class="cls-11" transform="translate(694.66 66.13)"><tspan x="0" y="0">7</tspan></text>
    </g>
    <g class="cls-9">
      <text class="cls-11" transform="translate(694.66 611.13)"><tspan x="0" y="0">4,5</tspan></text>
    </g>
    <g class="cls-9">
      <text class="cls-11" transform="translate(694.66 288.13)"><tspan x="0" y="0">6</tspan></text>
    </g>
    <g class="cls-9">
      <text class="cls-11" transform="translate(644.2 360.43)"><tspan x="0" y="0">5,65</tspan></text>
    </g>
    <g class="cls-9">
      <text class="cls-11" transform="translate(644.41 149.72)"><tspan x="0" y="0">6,65</tspan></text>
    </g>
    <line class="cls-18" x1="1147.54" y1="109.73" x2="1170.54" y2="109.73"/>
    <line class="cls-18" x1="1147.54" y1="611.13" x2="1170.54" y2="611.13"/>
    <rect class="cls-3" x="1147.54" y="262.33" width="23" height="98.1"/>
    <line class="cls-14" x1="1147.54" y1="305.93" x2="1170.54" y2="305.93"/>
    <g class="cls-9">
      <text class="cls-11" transform="translate(1174.54 109.73)"><tspan x="0" y="0">6,8</tspan></text>
    </g>
    <g class="cls-9">
      <text class="cls-11" transform="translate(1174.54 611.13)"><tspan x="0" y="0">4,5</tspan></text>
    </g>
    <g class="cls-9">
      <text class="cls-11" transform="translate(1174.54 309.93)"><tspan x="0" y="0">5,9</tspan></text>
    </g>
    <g class="cls-9">
      <text class="cls-11" transform="translate(1124.08 360.43)"><tspan x="0" y="0">5,65</tspan></text>
    </g>
    <g class="cls-9">
      <text class="cls-11" transform="translate(1132.09 269.67)"><tspan x="0" y="0">6,1</tspan></text>
    </g>
    <line class="cls-16" x1="428.16" y1="66.01" x2="451.16" y2="66.01"/>
    <line class="cls-16" x1="428.16" y1="720.01" x2="451.16" y2="720.01"/>
    <rect class="cls-1" x="428.16" y="142.31" width="23" height="250.7"/>
    <line class="cls-14" x1="428.16" y1="284.01" x2="451.16" y2="284.01"/>
    <g class="cls-9">
      <text class="cls-11" transform="translate(454.69 66.13)"><tspan x="0" y="0">7</tspan></text>
    </g>
    <g class="cls-9">
      <text class="cls-11" transform="translate(454.69 720.13)"><tspan x="0" y="0">4</tspan></text>
    </g>
    <g class="cls-9">
      <text class="cls-11" transform="translate(455.69 286.13)"><tspan x="0" y="0">6</tspan></text>
    </g>
    <g class="cls-9">
      <text class="cls-11" transform="translate(409.79 392.13)"><tspan x="0" y="0">5,5</tspan></text>
    </g>
    <g class="cls-9">
      <text class="cls-11" transform="translate(406.73 151.43)"><tspan x="0" y="0">6,65</tspan></text>
    </g>
    <g>
      <g>
        <line class="cls-17" x1="1399.63" y1="174.28" x2="1399.63" y2="175.28"/>
        <line class="cls-15" x1="1399.63" y1="177.28" x2="1399.63" y2="717.27"/>
        <line class="cls-17" x1="1399.63" y1="718.28" x2="1399.63" y2="719.28"/>
      </g>
      <g>
        <line class="cls-26" x1="1399.6" y1="720.13" x2="1399.6" y2="726.13"/>
        <g class="cls-9">
          <text class="cls-11" transform="translate(1294.36 736.23)"><tspan x="0" y="0">Diseñador con mención en </tspan></text>
          <text class="cls-8" transform="translate(1416.1 736.23)"><tspan x="0" y="0">V</tspan></text>
          <text class="cls-11" transform="translate(1422.59 736.23)"><tspan x="0" y="0">isualidad y Medios</tspan></text>
        </g>
      </g>
      <line class="cls-23" x1="1388.13" y1="174.28" x2="1411.13" y2="174.28"/>
      <line class="cls-17" x1="1388.13" y1="719.28" x2="1411.13" y2="719.28"/>
      <rect class="cls-5" x="1388.13" y="283.28" width="23" height="109"/>
      <line class="cls-14" x1="1388.13" y1="326.88" x2="1411.13" y2="326.88"/>
      <g class="cls-9">
        <text class="cls-11" transform="translate(1415.13 174.28)"><tspan x="0" y="0">6.5</tspan></text>
      </g>
      <g class="cls-9">
        <text class="cls-11" transform="translate(1415.13 719.28)"><tspan x="0" y="0">4</tspan></text>
      </g>
      <g class="cls-9">
        <text class="cls-11" transform="translate(1415.13 329.88)"><tspan x="0" y="0">5.8</tspan></text>
      </g>
      <g class="cls-9">
        <text class="cls-11" transform="translate(1370.7 391.28)"><tspan x="0" y="0">5.5</tspan></text>
      </g>
      <g class="cls-9">
        <text class="cls-11" transform="translate(1380.13 291.28)"><tspan x="0" y="0">6</tspan></text>
      </g>
    </g>
    <g>
      <line class="cls-12" x1="920.11" y1="66.13" x2="920.11" y2="567.53"/>
      <g>
        <line class="cls-26" x1="920.61" y1="720.13" x2="920.61" y2="726.13"/>
        <g class="cls-9">
          <text class="cls-11" transform="translate(897.82 736.23)"><tspan x="0" y="0">Diseñador</tspan></text>
        </g>
      </g>
      <line class="cls-24" x1="908.61" y1="66.13" x2="931.61" y2="66.13"/>
      <line class="cls-24" x1="908.61" y1="567.53" x2="931.61" y2="567.53"/>
      <rect class="cls-7" x="908.61" y="240.53" width="23" height="152.6"/>
      <line class="cls-14" x1="908.61" y1="284.13" x2="931.61" y2="284.13"/>
      <g class="cls-9">
        <text class="cls-11" transform="translate(935.61 66.13)"><tspan x="0" y="0">7</tspan></text>
      </g>
      <g class="cls-9">
        <text class="cls-11" transform="translate(935.61 567.53)"><tspan x="0" y="0">4,7</tspan></text>
      </g>
      <g class="cls-9">
        <text class="cls-11" transform="translate(935.61 286.13)"><tspan x="0" y="0">6</tspan></text>
      </g>
      <g class="cls-9">
        <text class="cls-11" transform="translate(890.71 393.13)"><tspan x="0" y="0">5,5</tspan></text>
      </g>
      <g class="cls-9">
        <text class="cls-11" transform="translate(891.21 248.53)"><tspan x="0" y="0">6,2</tspan></text>
      </g>
    </g>
  </g>
</svg>