<?xml version="1.0" encoding="UTF-8"?>
<svg id="Layer_1" data-name="Layer 1" xmlns="http://www.w3.org/2000/svg" version="1.1" viewBox="0 0 2236.8 1089.3">
  <defs>
    <style>
      .cls-1 {
        letter-spacing: 0em;
      }

      .cls-1, .cls-2, .cls-3, .cls-4, .cls-5, .cls-6, .cls-7, .cls-8, .cls-9, .cls-10, .cls-11, .cls-12, .cls-13, .cls-14, .cls-15, .cls-16, .cls-17, .cls-18, .cls-19, .cls-20 {
        isolation: isolate;
      }

      .cls-1, .cls-2, .cls-4, .cls-5, .cls-7, .cls-8, .cls-9, .cls-10, .cls-11, .cls-12, .cls-13, .cls-14, .cls-15, .cls-16, .cls-17, .cls-18, .cls-19, .cls-20 {
        fill: #000;
        font-family: ArialMT, Arial;
      }

      .cls-1, .cls-16 {
        font-size: 22.4px;
      }

      .cls-21 {
        fill: #eaeaea;
      }

      .cls-21, .cls-22, .cls-23, .cls-24, .cls-25, .cls-26, .cls-27 {
        stroke-width: 0px;
      }

      .cls-2 {
        font-size: 21.6px;
      }

      .cls-3 {
        fill: #7b7b7b;
        font-family: Arial-BoldMT, Arial;
        font-size: 24px;
        font-weight: 700;
      }

      .cls-4 {
        font-size: 15.5px;
      }

      .cls-28 {
        stroke: #fff;
      }

      .cls-28, .cls-29, .cls-30, .cls-31, .cls-32, .cls-33, .cls-34, .cls-35, .cls-36, .cls-37, .cls-38, .cls-39, .cls-40, .cls-41, .cls-42 {
        fill: none;
      }

      .cls-5 {
        font-size: 16.3px;
      }

      .cls-29, .cls-38 {
        stroke-dasharray: 0 0 0 0 0 0 2 2;
      }

      .cls-29, .cls-42 {
        stroke: #0037ff;
      }

      .cls-7 {
        font-size: 15.6px;
      }

      .cls-8 {
        font-size: 22.5px;
      }

      .cls-30, .cls-35 {
        stroke: #002691;
      }

      .cls-9 {
        font-size: 15.7px;
      }

      .cls-10 {
        font-size: 16.8px;
      }

      .cls-31, .cls-35, .cls-36, .cls-37 {
        stroke-dasharray: 0 0 0 0 0 0 2 2;
      }

      .cls-31, .cls-39 {
        stroke: #ff7f0e;
      }

      .cls-32, .cls-38 {
        stroke: #0af;
      }

      .cls-11 {
        font-size: 16.4px;
      }

      .cls-12 {
        font-size: 17.3px;
      }

      .cls-13 {
        font-size: 16.3px;
      }

      .cls-14 {
        font-size: 15.8px;
      }

      .cls-15 {
        font-size: 15.8px;
      }

      .cls-22 {
        fill: #ff7f0e;
      }

      .cls-23 {
        fill: #0037ff;
      }

      .cls-24 {
        fill: #0af;
      }

      .cls-25 {
        fill: #ff3c00;
      }

      .cls-17 {
        font-size: 17.3px;
      }

      .cls-33, .cls-37 {
        stroke: #ff3c00;
      }

      .cls-26 {
        fill: #002691;
      }

      .cls-18 {
        font-size: 12.6px;
      }

      .cls-34, .cls-36 {
        stroke: #fbc217;
      }

      .cls-19 {
        font-size: 16.8px;
      }

      .cls-20 {
        font-size: 21.2px;
      }

      .cls-40 {
        stroke: #fdc214;
      }

      .cls-27 {
        fill: #ffc200;
      }

      .cls-41 {
        stroke: #000;
      }
    </style>
  </defs>
  <g id="Layer_3" data-name="Layer 3">
    <rect class="cls-21" x="260.1" y="145.2" width="613.9" height="841.4"/>
    <rect class="cls-21" x="1462.6" y="145.2" width="613.9" height="841.4"/>
  </g>
  <g id="Layer_2" data-name="Layer 2">
    <g>
      <line class="cls-32" x1="412" y1="986" x2="412" y2="984.7"/>
      <line class="cls-38" x1="412" y1="982.2" x2="412" y2="163.8"/>
      <line class="cls-32" x1="412" y1="162.5" x2="412" y2="161.3"/>
    </g>
    <g>
      <line class="cls-42" x1="714.7" y1="161.1" x2="714.7" y2="162.4"/>
      <line class="cls-29" x1="714.7" y1="164.9" x2="714.7" y2="983.3"/>
      <line class="cls-42" x1="714.7" y1="984.5" x2="714.7" y2="985.8"/>
    </g>
    <g>
      <line class="cls-30" x1="1016.7" y1="161.3" x2="1016.7" y2="162.5"/>
      <line class="cls-35" x1="1016.7" y1="165" x2="1016.7" y2="846"/>
      <line class="cls-30" x1="1016.7" y1="847.2" x2="1016.7" y2="848.5"/>
    </g>
    <line class="cls-31" x1="1621.8" y1="216.4" x2="1621.8" y2="848.7"/>
  </g>
  <path class="cls-41" d="M252.5,986.6h8.2V145.2"/>
  <line class="cls-41" x1="260.1" y1="986.6" x2="252.5" y2="986.6"/>
  <g class="cls-6">
    <g class="cls-6">
      <text class="cls-15" transform="translate(227 989.6)"><tspan x="0" y="0">4,0</tspan></text>
    </g>
  </g>
  <line class="cls-41" x1="260.1" y1="931.6" x2="252.5" y2="931.6"/>
  <g class="cls-6">
    <g class="cls-6">
      <text class="cls-15" transform="translate(227 936.8)"><tspan x="0" y="0">4,2</tspan></text>
    </g>
  </g>
  <line class="cls-41" x1="260.1" y1="876.6" x2="252.5" y2="876.6"/>
  <g class="cls-6">
    <g class="cls-6">
      <text class="cls-7" transform="translate(227 879.7)"><tspan x="0" y="0">4,4</tspan></text>
    </g>
  </g>
  <line class="cls-41" x1="260.1" y1="821.7" x2="252.5" y2="821.7"/>
  <g class="cls-6">
    <g class="cls-6">
      <text class="cls-14" transform="translate(226.8 824.7)"><tspan x="0" y="0">4,6</tspan></text>
    </g>
  </g>
  <line class="cls-41" x1="260.1" y1="766.7" x2="252.5" y2="766.7"/>
  <g class="cls-6">
    <g class="cls-6">
      <text class="cls-14" transform="translate(226.8 769.7)"><tspan x="0" y="0">4,8</tspan></text>
    </g>
  </g>
  <line class="cls-41" x1="260.1" y1="711.7" x2="252.5" y2="711.7"/>
  <g class="cls-6">
    <g class="cls-6">
      <text class="cls-13" transform="translate(226.1 714.5)"><tspan x="0" y="0">5,0</tspan></text>
    </g>
  </g>
  <line class="cls-41" x1="260.1" y1="656.7" x2="252.5" y2="656.7"/>
  <g class="cls-6">
    <g class="cls-6">
      <text class="cls-10" transform="translate(225.4 659.4)"><tspan x="0" y="0">5,2</tspan></text>
    </g>
  </g>
  <line class="cls-41" x1="260.1" y1="601.7" x2="252.5" y2="601.7"/>
  <g class="cls-6">
    <g class="cls-6">
      <text class="cls-5" transform="translate(226 604.6)"><tspan x="0" y="0">5,4</tspan></text>
    </g>
  </g>
  <line class="cls-41" x1="260.1" y1="546.8" x2="252.5" y2="546.8"/>
  <g class="cls-6">
    <g class="cls-6">
      <text class="cls-19" transform="translate(225.3 549.4)"><tspan x="0" y="0">5,6</tspan></text>
    </g>
  </g>
  <line class="cls-41" x1="260.1" y1="491.8" x2="252.5" y2="491.8"/>
  <g class="cls-6">
    <g class="cls-6">
      <text class="cls-12" transform="translate(224.7 496.3)"><tspan x="0" y="0">5,8</tspan></text>
    </g>
  </g>
  <line class="cls-41" x1="260.1" y1="436.8" x2="252.5" y2="436.8"/>
  <g class="cls-6">
    <g class="cls-6">
      <text class="cls-17" transform="translate(224.7 443.3)"><tspan x="0" y="0">6,0</tspan></text>
    </g>
  </g>
  <g>
    <line class="cls-41" x1="260.1" y1="380" x2="250.8" y2="380"/>
    <g class="cls-6">
      <g class="cls-6">
        <text class="cls-4" transform="translate(224.7 384.9)"><tspan x="0" y="0">6,2</tspan></text>
      </g>
    </g>
  </g>
  <g>
    <line class="cls-41" x1="260.1" y1="324.8" x2="250.6" y2="324.8"/>
    <g class="cls-6">
      <g class="cls-6">
        <text class="cls-9" transform="translate(224.1 329.9)"><tspan x="0" y="0">6,4</tspan></text>
      </g>
    </g>
  </g>
  <g>
    <line class="cls-41" x1="260.1" y1="269.9" x2="250.6" y2="269.9"/>
    <g class="cls-6">
      <g class="cls-6">
        <text class="cls-9" transform="translate(224.1 274.9)"><tspan x="0" y="0">6,6</tspan></text>
      </g>
    </g>
  </g>
  <g>
    <line class="cls-41" x1="260.1" y1="214.9" x2="250.6" y2="214.9"/>
    <g class="cls-6">
      <g class="cls-6">
        <text class="cls-9" transform="translate(224.1 219.9)"><tspan x="0" y="0">6,8</tspan></text>
      </g>
    </g>
  </g>
  <g>
    <line class="cls-41" x1="260.8" y1="158.6" x2="251" y2="158.6"/>
    <g class="cls-6">
      <g class="cls-6">
        <text class="cls-11" transform="translate(223.3 163.9)"><tspan x="0" y="0">7,0</tspan></text>
      </g>
    </g>
  </g>
  <g class="cls-6">
    <g class="cls-6">
      <text class="cls-3" transform="translate(95.9 90.9)"><tspan x="0" y="0">Nota Proyecto</tspan></text>
    </g>
  </g>
  <path class="cls-41" d="M260.7,993.5v-6.9h1815.9v6.9"/>
  <line class="cls-41" x1="412" y1="986" x2="412" y2="993.5"/>
  <g>
    <g class="cls-6">
      <text class="cls-16" transform="translate(325.4 1027.5)"><tspan x="0" y="0">Diseñadora</tspan></text>
    </g>
    <g class="cls-6">
      <text class="cls-1" transform="translate(447 1027.8) scale(.9 1)"><tspan x="0" y="0">V</tspan></text>
    </g>
    <g class="cls-6">
      <text class="cls-16" transform="translate(459.7 1027.8)"><tspan x="0" y="0" xml:space="preserve"> y M</tspan></text>
    </g>
  </g>
  <line class="cls-41" x1="1016.7" y1="986.6" x2="1016.7" y2="994.2"/>
  <g class="cls-6">
    <g class="cls-6">
      <text class="cls-2" transform="translate(964.7 1027.5)"><tspan x="0" y="0">Diseñadora</tspan></text>
    </g>
  </g>
  <line class="cls-41" x1="1621.9" y1="986.6" x2="1621.9" y2="994.2"/>
  <line class="cls-41" x1="714.7" y1="987" x2="714.7" y2="994.5"/>
  <g class="cls-6">
    <g class="cls-6">
      <text class="cls-20" transform="translate(639.9 1027.5)"><tspan x="0" y="0">Diseñadora I y S</tspan></text>
    </g>
  </g>
  <g>
    <g class="cls-6">
      <text class="cls-16" transform="translate(1843.5 1027.7)"><tspan x="0" y="0">Diseñador</tspan></text>
    </g>
    <g class="cls-6">
      <text class="cls-1" transform="translate(1953.1 1027.9) scale(.9 1)"><tspan x="0" y="0">V</tspan></text>
    </g>
    <g class="cls-6">
      <text class="cls-16" transform="translate(1965.8 1027.9)"><tspan x="0" y="0" xml:space="preserve"> y M</tspan></text>
    </g>
  </g>
  <g class="cls-6">
    <g class="cls-6">
      <text class="cls-20" transform="translate(1550 1026.9)"><tspan x="0" y="0">Diseñador I y S</tspan></text>
    </g>
  </g>
  <line class="cls-32" x1="396.9" y1="161.3" x2="425.9" y2="161.3"/>
  <line class="cls-32" x1="396.9" y1="986" x2="425.9" y2="986"/>
  <rect class="cls-24" x="396.9" y="298.7" width="29" height="261.2"/>
  <line class="cls-28" x1="396.9" y1="436.2" x2="425.9" y2="436.2"/>
  <g class="cls-6">
    <g class="cls-6">
      <text class="cls-18" transform="translate(430.9 161.3)"><tspan x="0" y="0">7</tspan></text>
    </g>
  </g>
  <g class="cls-6">
    <g class="cls-6">
      <text class="cls-18" transform="translate(430.9 986)"><tspan x="0" y="0">4</tspan></text>
    </g>
  </g>
  <g class="cls-6">
    <g class="cls-6">
      <text class="cls-18" transform="translate(430.9 439.9)"><tspan x="0" y="0">6</tspan></text>
    </g>
  </g>
  <g class="cls-6">
    <g class="cls-6">
      <text class="cls-18" transform="translate(367.8 559.9)"><tspan x="0" y="0">5,55</tspan></text>
    </g>
  </g>
  <g class="cls-6">
    <g class="cls-6">
      <text class="cls-18" transform="translate(374.9 307.6)"><tspan x="0" y="0">6,5</tspan></text>
    </g>
  </g>
  <line class="cls-30" x1="1002.2" y1="161.3" x2="1031.2" y2="161.3"/>
  <line class="cls-30" x1="1002.2" y1="848.5" x2="1031.2" y2="848.5"/>
  <rect class="cls-26" x="1002.2" y="257.5" width="29" height="274.9"/>
  <line class="cls-28" x1="1002.2" y1="436.2" x2="1031.2" y2="436.2"/>
  <g class="cls-6">
    <g class="cls-6">
      <text class="cls-18" transform="translate(1036.2 161.3)"><tspan x="0" y="0">7</tspan></text>
    </g>
  </g>
  <g class="cls-6">
    <g class="cls-6">
      <text class="cls-18" transform="translate(1036.2 848.5)"><tspan x="0" y="0">4,5</tspan></text>
    </g>
  </g>
  <g class="cls-6">
    <g class="cls-6">
      <text class="cls-18" transform="translate(1036.2 441.2)"><tspan x="0" y="0">6</tspan></text>
    </g>
  </g>
  <g class="cls-6">
    <g class="cls-6">
      <text class="cls-18" transform="translate(972.6 532.4)"><tspan x="0" y="0">5,65</tspan></text>
    </g>
  </g>
  <g class="cls-6">
    <g class="cls-6">
      <text class="cls-18" transform="translate(972.8 266.7)"><tspan x="0" y="0">6,65</tspan></text>
    </g>
  </g>
  <line class="cls-39" x1="1607.3" y1="216.2" x2="1636.3" y2="216.2"/>
  <line class="cls-39" x1="1607.3" y1="848.5" x2="1636.3" y2="848.5"/>
  <rect class="cls-22" x="1607.3" y="408.7" width="29" height="123.7"/>
  <line class="cls-28" x1="1607.3" y1="463.7" x2="1636.3" y2="463.7"/>
  <g class="cls-6">
    <g class="cls-6">
      <text class="cls-18" transform="translate(1641.3 216.2)"><tspan x="0" y="0">6,8</tspan></text>
    </g>
  </g>
  <g class="cls-6">
    <g class="cls-6">
      <text class="cls-18" transform="translate(1641.3 848.5)"><tspan x="0" y="0">4,5</tspan></text>
    </g>
  </g>
  <g class="cls-6">
    <g class="cls-6">
      <text class="cls-18" transform="translate(1641.3 468.7)"><tspan x="0" y="0">5,9</tspan></text>
    </g>
  </g>
  <g class="cls-6">
    <g class="cls-6">
      <text class="cls-18" transform="translate(1577.7 532.4)"><tspan x="0" y="0">5,65</tspan></text>
    </g>
  </g>
  <g class="cls-6">
    <g class="cls-6">
      <text class="cls-18" transform="translate(1587.8 417.9)"><tspan x="0" y="0">6,1</tspan></text>
    </g>
  </g>
  <line class="cls-42" x1="700.1" y1="161.1" x2="729.2" y2="161.1"/>
  <line class="cls-42" x1="700.1" y1="985.8" x2="729.2" y2="985.8"/>
  <rect class="cls-23" x="700.1" y="257.3" width="29" height="316.1"/>
  <line class="cls-28" x1="700.1" y1="436" x2="729.2" y2="436"/>
  <g class="cls-6">
    <g class="cls-6">
      <text class="cls-18" transform="translate(733.6 161.3)"><tspan x="0" y="0">7</tspan></text>
    </g>
  </g>
  <g class="cls-6">
    <g class="cls-6">
      <text class="cls-18" transform="translate(733.6 986)"><tspan x="0" y="0">4</tspan></text>
    </g>
  </g>
  <g class="cls-6">
    <g class="cls-6">
      <text class="cls-18" transform="translate(734.9 438.7)"><tspan x="0" y="0">6</tspan></text>
    </g>
  </g>
  <g class="cls-6">
    <g class="cls-6">
      <text class="cls-18" transform="translate(677 572.3)"><tspan x="0" y="0">5,5</tspan></text>
    </g>
  </g>
  <g class="cls-6">
    <g class="cls-6">
      <text class="cls-18" transform="translate(673.1 268.8)"><tspan x="0" y="0">6,65</tspan></text>
    </g>
  </g>
  <g>
    <line class="cls-34" x1="1925.2" y1="297.6" x2="1925.2" y2="298.9"/>
    <line class="cls-36" x1="1925.2" y1="301.4" x2="1925.2" y2="982.4"/>
    <line class="cls-34" x1="1925.2" y1="983.6" x2="1925.2" y2="984.9"/>
  </g>
  <line class="cls-41" x1="1925.1" y1="986" x2="1925.1" y2="993.5"/>
  <line class="cls-40" x1="1910.7" y1="297.6" x2="1939.7" y2="297.6"/>
  <line class="cls-34" x1="1910.7" y1="984.9" x2="1939.7" y2="984.9"/>
  <rect class="cls-27" x="1910.7" y="435.1" width="29" height="137.5"/>
  <line class="cls-28" x1="1910.7" y1="490.1" x2="1939.7" y2="490.1"/>
  <g class="cls-6">
    <g class="cls-6">
      <text class="cls-18" transform="translate(1944.7 297.6)"><tspan x="0" y="0">6.5</tspan></text>
    </g>
  </g>
  <g class="cls-6">
    <g class="cls-6">
      <text class="cls-18" transform="translate(1944.7 984.9)"><tspan x="0" y="0">4</tspan></text>
    </g>
  </g>
  <g class="cls-6">
    <g class="cls-6">
      <text class="cls-18" transform="translate(1944.7 493.9)"><tspan x="0" y="0">5.8</tspan></text>
    </g>
  </g>
  <g class="cls-6">
    <g class="cls-6">
      <text class="cls-18" transform="translate(1888.7 571.3)"><tspan x="0" y="0">5.5</tspan></text>
    </g>
  </g>
  <g class="cls-6">
    <g class="cls-6">
      <text class="cls-18" transform="translate(1900.6 445.2)"><tspan x="0" y="0">6</tspan></text>
    </g>
  </g>
  <line class="cls-37" x1="1320.5" y1="161.3" x2="1320.5" y2="793.5"/>
  <line class="cls-41" x1="1321.1" y1="986" x2="1321.1" y2="993.5"/>
  <g class="cls-6">
    <g class="cls-6">
      <text class="cls-8" transform="translate(1268.1 1027.5)"><tspan x="0" y="0">Diseñador</tspan></text>
    </g>
  </g>
  <line class="cls-33" x1="1306" y1="161.3" x2="1335" y2="161.3"/>
  <line class="cls-33" x1="1306" y1="793.5" x2="1335" y2="793.5"/>
  <rect class="cls-25" x="1306" y="381.2" width="29" height="192.4"/>
  <line class="cls-28" x1="1306" y1="436.2" x2="1335" y2="436.2"/>
  <g class="cls-6">
    <g class="cls-6">
      <text class="cls-18" transform="translate(1340 161.3)"><tspan x="0" y="0">7</tspan></text>
    </g>
  </g>
  <g class="cls-6">
    <g class="cls-6">
      <text class="cls-18" transform="translate(1340 793.5)"><tspan x="0" y="0">4,7</tspan></text>
    </g>
  </g>
  <g class="cls-6">
    <g class="cls-6">
      <text class="cls-18" transform="translate(1340 438.7)"><tspan x="0" y="0">6</tspan></text>
    </g>
  </g>
  <g class="cls-6">
    <g class="cls-6">
      <text class="cls-18" transform="translate(1283.4 573.6)"><tspan x="0" y="0">5,5</tspan></text>
    </g>
  </g>
  <g class="cls-6">
    <g class="cls-6">
      <text class="cls-18" transform="translate(1284.1 391.3)"><tspan x="0" y="0">6,2</tspan></text>
    </g>
  </g>
</svg>