<?xml version="1.0" encoding="UTF-8"?>
<svg id="Layer_1" data-name="Layer 1" xmlns="http://www.w3.org/2000/svg" viewBox="0 0 990.02 625.1">
  <defs>
    <style>
      .cls-1 {
        font-family: ArialMT, Arial;
        font-size: 15px;
      }

      .cls-1, .cls-2 {
        fill: #000;
      }

      .cls-1, .cls-3 {
        isolation: isolate;
      }

      .cls-2, .cls-4, .cls-5, .cls-6, .cls-7, .cls-8, .cls-9 {
        stroke-width: 0px;
      }

      .cls-4 {
        fill: #ff4545;
      }

      .cls-5 {
        fill: #7b7b7b;
      }

      .cls-6 {
        fill: #ffed0b;
      }

      .cls-7 {
        fill: #ffa300;
      }

      .cls-8 {
        fill: #f0484a;
      }

      .cls-9 {
        fill: #afbdc8;
      }

      .cls-10 {
        fill: none;
        stroke: #000;
      }
    </style>
  </defs>
  <rect id="undefined_-_Reprueban" data-name="undefined - Reprueban" class="cls-9" x="85.12" y="390.17" width="48.1" height="208"/>
  <rect id="undefined_-_Reprueban-2" data-name="undefined - Reprueban" class="cls-9" x="190.32" y="326.17" width="48.1" height="272"/>
  <rect id="undefined_-_Reprueban-3" data-name="undefined - Reprueban" class="cls-9" x="295.42" y="126.17" width="48.1" height="472"/>
  <rect id="undefined_-_Reprueban-4" data-name="undefined - Reprueban" class="cls-9" x="400.62" y="222.17" width="48.1" height="376"/>
  <rect id="undefined_-_Reprueban-5" data-name="undefined - Reprueban" class="cls-9" x="505.82" y="254.17" width="48.1" height="344"/>
  <rect id="undefined_-_Reprueban-6" data-name="undefined - Reprueban" class="cls-9" x="610.92" y="430.17" width="48.1" height="168"/>
  <rect id="undefined_-_Reprueban-7" data-name="undefined - Reprueban" class="cls-9" x="716.12" y="190.17" width="48.1" height="408"/>
  <path class="cls-10" d="M28.62,598.67h745"/>
  <line class="cls-10" x1="85.15" y1="598.17" x2="85.15" y2="604.17"/>
  <text class="cls-1" transform="translate(61.58 620.23)"><tspan x="0" y="0">2021-2</tspan></text>
  <line class="cls-10" x1="190.31" y1="598.17" x2="190.31" y2="604.17"/>
  <text class="cls-1" transform="translate(166.74 620.23)"><tspan x="0" y="0">2022-1</tspan></text>
  <line class="cls-10" x1="295.47" y1="598.17" x2="295.47" y2="604.17"/>
  <text class="cls-1" transform="translate(271.9 620.23)"><tspan x="0" y="0">2022-2</tspan></text>
  <line class="cls-10" x1="400.62" y1="598.17" x2="400.62" y2="604.17"/>
  <text class="cls-1" transform="translate(377.05 620.23)"><tspan x="0" y="0">2023-1</tspan></text>
  <line class="cls-10" x1="505.78" y1="598.17" x2="505.78" y2="604.17"/>
  <text class="cls-1" transform="translate(482.21 620.23)"><tspan x="0" y="0">2023-2</tspan></text>
  <line class="cls-10" x1="610.94" y1="598.17" x2="610.94" y2="604.17"/>
  <text class="cls-1" transform="translate(587.37 620.23)"><tspan x="0" y="0">2024-1</tspan></text>
  <line class="cls-10" x1="716.1" y1="598.17" x2="716.1" y2="604.17"/>
  <text class="cls-1" transform="translate(692.53 620.23)"><tspan x="0" y="0">2024-2</tspan></text>
  <path class="cls-10" d="M28.62,598.67V38.67"/>
  <line class="cls-10" x1="28.12" y1="598.67" x2="22.12" y2="598.67"/>
  <text class="cls-1" transform="translate(5.56 601.83)"><tspan x="0" y="0">0</tspan></text>
  <line class="cls-10" x1="28.12" y1="558.67" x2="22.12" y2="558.67"/>
  <text class="cls-1" transform="translate(5.56 561.83)"><tspan x="0" y="0">5</tspan></text>
  <line class="cls-10" x1="28.12" y1="518.67" x2="22.12" y2="518.67"/>
  <text class="cls-1" transform="translate(0 521.83)"><tspan x="0" y="0">10</tspan></text>
  <line class="cls-10" x1="28.12" y1="478.67" x2="22.12" y2="478.67"/>
  <text class="cls-1" transform="translate(0 481.83)"><tspan x="0" y="0">15</tspan></text>
  <line class="cls-10" x1="28.12" y1="438.67" x2="22.12" y2="438.67"/>
  <text class="cls-1" transform="translate(0 441.83)"><tspan x="0" y="0">20</tspan></text>
  <line class="cls-10" x1="28.12" y1="398.67" x2="22.12" y2="398.67"/>
  <text class="cls-1" transform="translate(0 401.83)"><tspan x="0" y="0">25</tspan></text>
  <line class="cls-10" x1="28.12" y1="358.67" x2="22.12" y2="358.67"/>
  <text class="cls-1" transform="translate(0 361.83)"><tspan x="0" y="0">30</tspan></text>
  <line class="cls-10" x1="28.12" y1="318.67" x2="22.12" y2="318.67"/>
  <text class="cls-1" transform="translate(0 321.83)"><tspan x="0" y="0">35</tspan></text>
  <line class="cls-10" x1="28.12" y1="278.67" x2="22.12" y2="278.67"/>
  <text class="cls-1" transform="translate(0 281.83)"><tspan x="0" y="0">40</tspan></text>
  <line class="cls-10" x1="28.12" y1="238.67" x2="22.12" y2="238.67"/>
  <text class="cls-1" transform="translate(0 241.83)"><tspan x="0" y="0">45</tspan></text>
  <line class="cls-10" x1="28.12" y1="198.67" x2="22.12" y2="198.67"/>
  <text class="cls-1" transform="translate(0 201.83)"><tspan x="0" y="0">50</tspan></text>
  <line class="cls-10" x1="28.12" y1="158.67" x2="22.12" y2="158.67"/>
  <text class="cls-1" transform="translate(0 161.83)"><tspan x="0" y="0">55</tspan></text>
  <line class="cls-10" x1="28.12" y1="118.67" x2="22.12" y2="118.67"/>
  <text class="cls-1" transform="translate(0 121.83)"><tspan x="0" y="0">60</tspan></text>
  <line class="cls-10" x1="28.12" y1="78.67" x2="22.12" y2="78.67"/>
  <text class="cls-1" transform="translate(0 81.83)"><tspan x="0" y="0">65</tspan></text>
  <line class="cls-10" x1="29.12" y1="38.67" x2="23.12" y2="38.67"/>
  <text class="cls-1" transform="translate(1 41.83)"><tspan x="0" y="0">70</tspan></text>
  <g class="cls-3">
    <path class="cls-5" d="M785.82,596.52l2.75-.32c.16.97.48,1.62.97,1.94s1.13.65,2.1.65,1.62-.16,2.1-.65.65-.81.65-1.29c0-.32-.16-.65-.32-.81s-.48-.48-.97-.65c-.32-.16-1.13-.32-2.26-.65-1.45-.32-2.59-.81-3.23-1.29-.81-.81-1.29-1.62-1.29-2.75,0-.65.16-1.29.65-1.94s.97-1.13,1.78-1.45,1.62-.48,2.75-.48c1.78,0,3.07.32,3.88,1.13s1.29,1.78,1.45,3.07l-2.75.16c-.16-.65-.32-1.29-.81-1.62s-.97-.48-1.78-.48-1.45.16-1.94.48c-.32.16-.48.48-.48.81s.16.65.48.81c.32.32,1.29.65,2.59.97s2.42.65,3.07.97,1.13.81,1.45,1.45.48,1.29.48,2.26c0,.81-.16,1.62-.65,2.26s-1.13,1.13-1.94,1.62-1.78.48-3.07.48c-1.78,0-3.07-.48-4.04-1.29s-1.45-1.94-1.62-3.39Z"/>
    <path class="cls-5" d="M805.22,597.82l2.59.48c-.32.97-.81,1.78-1.62,2.26s-1.62.81-2.75.81c-1.78,0-3.07-.65-3.88-1.78-.65-.97-.97-2.1-.97-3.39,0-1.62.48-2.91,1.29-3.88s1.94-1.45,3.23-1.45c1.45,0,2.75.48,3.56,1.45s1.29,2.42,1.29,4.53h-6.63c0,.81.16,1.45.65,1.78s.97.65,1.45.65.81-.16,1.13-.32.48-.65.65-1.13ZM805.38,595.07c0-.81-.16-1.29-.65-1.78s-.81-.65-1.45-.65-1.13.16-1.45.65-.48.97-.48,1.78h4.04Z"/>
    <path class="cls-5" d="M810.07,590.87h2.42v1.29c.81-1.13,1.94-1.62,3.07-1.62.65,0,1.13.16,1.62.32s.81.65,1.13,1.13c.48-.48.97-.97,1.45-1.13s1.13-.32,1.62-.32c.81,0,1.29.16,1.94.48s.97.81,1.13,1.29c.16.48.32,1.13.32,2.1v6.47h-2.59v-5.66c0-.97-.16-1.62-.32-1.94-.32-.32-.65-.65-1.13-.65-.32,0-.65.16-1.13.32s-.48.48-.65.97-.16,1.13-.16,2.1v4.85h-2.59v-5.5c0-.97,0-1.62-.16-1.94s-.16-.48-.48-.65-.48-.16-.81-.16c-.48,0-.81.16-1.13.32s-.48.48-.65.97-.16,1.13-.16,2.1v4.85h-2.59v-10.02h-.16Z"/>
    <path class="cls-5" d="M833.34,597.82l2.59.48c-.32.97-.81,1.78-1.62,2.26s-1.62.81-2.75.81c-1.78,0-3.07-.65-3.88-1.78-.65-.97-.97-2.1-.97-3.39,0-1.62.48-2.91,1.29-3.88s1.94-1.45,3.23-1.45c1.45,0,2.75.48,3.56,1.45s1.29,2.42,1.29,4.53h-6.63c0,.81.16,1.45.65,1.78s.97.65,1.45.65.81-.16,1.13-.32.48-.65.65-1.13ZM833.5,595.07c0-.81-.16-1.29-.65-1.78s-.81-.65-1.45-.65-1.13.16-1.45.65-.48.97-.48,1.78h4.04Z"/>
    <path class="cls-5" d="M837.38,598.14l2.75-.48c.16.48.32.97.65,1.13s.81.32,1.45.32,1.13-.16,1.62-.32c.16-.16.32-.48.32-.65s0-.32-.16-.48-.48-.32-.97-.32c-2.1-.48-3.56-.97-4.04-1.29-.81-.48-1.13-1.29-1.13-2.26,0-.81.32-1.62.97-2.26s1.78-.97,3.23-.97,2.42.16,3.07.65,1.13,1.13,1.45,1.94l-2.59.48c-.16-.32-.32-.65-.65-.97s-.81-.32-1.29-.32c-.65,0-1.13.16-1.45.32-.16.16-.32.32-.32.48s.16.32.32.48c.16.16,1.13.48,2.42.81s2.42.65,2.91,1.13.81,1.13.81,1.94c0,.97-.32,1.78-1.13,2.42s-1.94.97-3.39.97c-1.29,0-2.42-.32-3.23-.81s-1.45-.97-1.62-1.94Z"/>
    <path class="cls-5" d="M853.71,590.87v2.1h-1.78v5.5c0,.16.16.32.16.32,0,0,.32.16.48.16.32,0,.65-.16,1.13-.32l.16,2.1c-.65.32-1.29.32-2.1.32-.48,0-.97,0-1.29-.16s-.65-.32-.81-.65-.32-.65-.32-.97-.16-.97-.16-1.94v-4.36h-1.29v-2.1h1.29v-1.94l2.75-1.62v3.56h1.78Z"/>
    <path class="cls-5" d="M858.07,601.05h-2.59v-10.02h2.42v1.45c.48-.65.81-1.13,1.13-1.29s.65-.32,1.13-.32c.65,0,1.13.16,1.78.48l-.81,2.26c-.48-.32-.81-.48-1.29-.48-.32,0-.65.16-.97.32s-.48.65-.65,1.13-.16,1.62-.16,3.39v3.07h0Z"/>
    <path class="cls-5" d="M868.9,597.82l2.59.48c-.32.97-.81,1.78-1.62,2.26s-1.62.81-2.75.81c-1.78,0-3.07-.65-3.88-1.78-.65-.97-.97-2.1-.97-3.39,0-1.62.48-2.91,1.29-3.88s1.94-1.45,3.23-1.45c1.45,0,2.75.48,3.56,1.45s1.29,2.42,1.29,4.53h-6.63c0,.81.16,1.45.65,1.78s.97.65,1.45.65.81-.16,1.13-.32.48-.65.65-1.13ZM869.06,595.07c0-.81-.16-1.29-.65-1.78s-.81-.65-1.45-.65-1.13.16-1.45.65-.48.97-.48,1.78h4.04Z"/>
    <path class="cls-5" d="M872.94,598.14l2.75-.48c.16.48.32.97.65,1.13s.81.32,1.45.32,1.13-.16,1.62-.32c.16-.16.32-.48.32-.65s0-.32-.16-.48-.48-.32-.97-.32c-2.1-.48-3.56-.97-4.04-1.29-.81-.48-1.13-1.29-1.13-2.26,0-.81.32-1.62.97-2.26s1.78-.97,3.23-.97,2.42.16,3.07.65,1.13,1.13,1.45,1.94l-2.59.48c-.16-.32-.32-.65-.65-.97s-.81-.32-1.29-.32c-.65,0-1.13.16-1.45.32-.16.16-.32.32-.32.48s.16.32.32.48c.16.16,1.13.48,2.42.81s2.42.65,2.91,1.13.81,1.13.81,1.94c0,.97-.32,1.78-1.13,2.42s-1.94.97-3.39.97c-1.29,0-2.42-.32-3.23-.81s-1.45-.97-1.62-1.94Z"/>
  </g>
  <g class="cls-3">
    <path class="cls-5" d="M1.1,11.63V0h2.3v11.63H1.1Z"/>
    <path class="cls-5" d="M13.27,11.63h-2.3v-4.33c0-.95,0-1.49-.14-1.76s-.27-.54-.41-.68-.41-.27-.81-.27-.68.14-1.08.27-.54.54-.68.81-.14.95-.14,1.89v3.79h-2.16V2.98h2.03v1.22c.68-.95,1.62-1.49,2.84-1.49.54,0,.95.14,1.35.27s.68.41.95.68.41.54.41.95.14.81.14,1.49c0,0,0,5.55,0,5.55Z"/>
    <path class="cls-5" d="M14.76,9.2l2.3-.41c.14.41.27.81.54.95s.68.27,1.22.27.95-.14,1.35-.27c.14-.14.27-.41.27-.54s0-.27-.14-.41c-.14-.14-.41-.27-.81-.27-1.76-.41-2.98-.81-3.38-1.08-.68-.41-1.08-1.08-1.08-1.89,0-.68.27-1.35.81-1.89s1.49-.81,2.71-.81,2.03.14,2.57.54.95.95,1.22,1.62l-2.16.41c-.14-.27-.27-.54-.54-.81s-.68-.27-1.08-.27c-.54,0-.95.14-1.22.27-.14.14-.27.27-.27.41s.14.27.27.41c.14.14.95.41,2.03.68s2.03.54,2.43.95c.41.41.68.95.68,1.62,0,.81-.27,1.49-.95,2.03s-1.62.81-2.84.81c-1.08,0-2.03-.27-2.71-.68s-1.08-.81-1.22-1.62Z"/>
    <path class="cls-5" d="M31.94,5.68l-2.16.41c-.14-.41-.27-.81-.54-.95s-.54-.27-1.08-.27-.95.14-1.35.54-.54,1.08-.54,1.89c0,.95.14,1.76.54,2.16s.81.68,1.35.68c.41,0,.81-.14,1.08-.41s.41-.68.54-1.22l2.16.41c-.27.95-.68,1.76-1.35,2.3s-1.49.81-2.57.81c-1.22,0-2.16-.41-2.98-1.22s-1.08-1.89-1.08-3.25.41-2.43,1.08-3.25,1.76-1.22,2.98-1.22c1.08,0,1.89.27,2.43.68s1.22.95,1.49,1.89Z"/>
    <path class="cls-5" d="M35.73,11.63h-2.16V3.25h2.03v1.08c.41-.54.68-.95.95-1.08s.54-.27.95-.27c.54,0,.95.14,1.49.41l-.68,1.89c-.41-.27-.68-.41-1.08-.41-.27,0-.54.14-.81.27s-.41.54-.54.95-.14,1.35-.14,2.84c0,0,0,2.71,0,2.71Z"/>
    <path class="cls-5" d="M39.92,2.03V0h2.16v2.03h-2.16ZM39.92,11.63V3.25h2.16v8.39s-2.16,0-2.16,0Z"/>
    <path class="cls-5" d="M48.31,3.25v1.76h-1.49v4.6c0,.14.14.27.14.27,0,0,.27.14.41.14.27,0,.54-.14.95-.27l.14,1.76c-.54.27-1.08.27-1.76.27-.41,0-.81,0-1.08-.14s-.54-.27-.68-.54-.27-.54-.27-.81-.14-.81-.14-1.62v-3.65h-1.08v-1.76h1.08v-1.62l2.3-1.35v2.98s1.49,0,1.49,0Z"/>
    <path class="cls-5" d="M54.67,8.93l2.16.41c-.27.81-.68,1.49-1.35,1.89s-1.35.68-2.3.68c-1.49,0-2.57-.54-3.25-1.49-.54-.81-.81-1.76-.81-2.84,0-1.35.41-2.43,1.08-3.25s1.62-1.22,2.71-1.22c1.22,0,2.3.41,2.98,1.22s1.08,2.03,1.08,3.79h-5.55c0,.68.14,1.22.54,1.49s.81.54,1.22.54.68-.14.95-.27.41-.54.54-.95ZM54.8,6.63c0-.68-.14-1.08-.54-1.49s-.68-.54-1.22-.54-.95.14-1.22.54-.41.81-.41,1.49h3.38Z"/>
    <path class="cls-5" d="M58.05,9.2l2.3-.41c.14.41.27.81.54.95s.68.27,1.22.27.95-.14,1.35-.27c.14-.14.27-.41.27-.54s0-.27-.14-.41c-.14-.14-.41-.27-.81-.27-1.76-.41-2.98-.81-3.38-1.08-.68-.41-1.08-1.08-1.08-1.89,0-.68.27-1.35.81-1.89s1.49-.81,2.71-.81,2.03.14,2.57.54.95.95,1.22,1.62l-2.16.41c-.14-.27-.27-.54-.54-.81s-.68-.27-1.08-.27c-.54,0-.95.14-1.22.27-.14.14-.27.27-.27.41s.14.27.27.41c.14.14.95.41,2.03.68s2.03.54,2.43.95c.41.41.68.95.68,1.62,0,.81-.27,1.49-.95,2.03s-1.62.81-2.84.81c-1.08,0-2.03-.27-2.71-.68s-.95-.81-1.22-1.62Z"/>
  </g>
  <rect class="cls-8" x="804.51" y="27.45" width="20.08" height="20.08"/>
  <rect class="cls-9" x="804.51" y="109.09" width="20.08" height="20.08"/>
  <rect class="cls-7" x="804.51" y="54.22" width="20.08" height="20.08"/>
  <rect class="cls-6" x="804.51" y="80.98" width="20.08" height="20.08"/>
  <g>
    <path class="cls-2" d="M833.15,38.15l-1.07,3.35h-1.47l3.61-10.84h1.74l3.75,10.84h-1.47l-1.2-3.35h-3.88ZM836.76,37.08l-1.07-3.08c-.27-.67-.4-1.34-.54-2.01h0c-.13.67-.4,1.34-.54,2.01l-1.07,3.08h3.21Z"/>
    <path class="cls-2" d="M841.18,36.41v-2.54h1.2v1.34h0c.54-.94,1.47-1.47,2.81-1.47,1.87,0,3.35,1.61,3.35,4.02,0,2.81-1.74,4.15-3.48,4.15-1.07,0-1.87-.4-2.41-1.2h0v4.28h-1.34v-8.57s-.13,0-.13,0ZM842.52,38.42v.54c.27.94,1.07,1.61,2.14,1.61,1.47,0,2.41-1.2,2.41-2.94,0-1.61-.8-2.94-2.28-2.94-.94,0-1.87.67-2.14,1.74,0,.13-.13.4-.13.54v1.47Z"/>
    <path class="cls-2" d="M850.28,36.28v-2.41h1.2v1.47h0c.4-1.07,1.2-1.74,2.14-1.74h.4v1.34h-.54c-.94,0-1.74.8-1.87,1.87v4.82h-1.34v-5.35h0Z"/>
    <path class="cls-2" d="M862.06,39.49v2.14h-1.2l-.13-1.2h0c-.4.67-1.2,1.47-2.54,1.47-1.2,0-2.68-.67-2.68-3.35v-4.55h1.47v4.15c0,1.47.4,2.41,1.74,2.41.94,0,1.61-.67,1.87-1.34.13-.27.13-.4.13-.67v-4.82h1.47l-.13,5.76h0Z"/>
    <path class="cls-2" d="M865.27,38.02c0,1.87,1.2,2.68,2.68,2.68,1.07,0,1.61-.13,2.14-.4l.27,1.07c-.54.27-1.34.54-2.54.54-2.41,0-3.88-1.61-3.88-3.88s1.34-4.15,3.61-4.15c2.54,0,3.21,2.28,3.21,3.61v.67h-5.49v-.13ZM869.42,36.95c0-.94-.4-2.28-2.01-2.28-1.47,0-2.01,1.34-2.14,2.28h4.15Z"/>
    <path class="cls-2" d="M872.37,41.63v-11.38h1.34v4.82h0c.54-.8,1.34-1.47,2.68-1.47,1.87,0,3.35,1.61,3.21,4.02,0,2.81-1.74,4.15-3.48,4.15-1.07,0-2.01-.4-2.54-1.47h0v1.34h-1.2ZM873.84,38.42v.54c.27.94,1.07,1.61,2.14,1.61,1.47,0,2.41-1.2,2.41-2.94,0-1.61-.8-2.94-2.28-2.94-.94,0-1.87.67-2.14,1.74,0,.13-.13.4-.13.54v1.47Z"/>
    <path class="cls-2" d="M885.88,41.63l-.13-.94h0c-.4.67-1.2,1.2-2.41,1.2-1.61,0-2.41-1.07-2.41-2.28,0-1.87,1.61-2.94,4.68-2.94v-.13c0-.67-.13-1.74-1.74-1.74-.67,0-1.47.27-2.01.54l-.27-.94c.67-.4,1.61-.67,2.54-.67,2.41,0,2.94,1.61,2.94,3.21v2.94c0,.67,0,1.34.13,1.87l-1.34-.13h0ZM885.75,37.62c-1.61,0-3.35.27-3.35,1.74,0,.94.67,1.34,1.34,1.34,1.07,0,1.61-.67,1.87-1.34,0-.13.13-.27.13-.4v-1.34Z"/>
    <path class="cls-2" d="M889.36,35.88v-2.14h1.2l.13,1.34h0c.4-.8,1.34-1.47,2.54-1.47,1.07,0,2.81.67,2.81,3.35v4.68h-1.47v-4.42c0-1.2-.4-2.28-1.74-2.28-.94,0-1.61.67-1.87,1.47,0,.13-.13.4-.13.67v4.68h-1.47v-5.89h0Z"/>
    <path class="cls-2" d="M904.76,30.39c-1.2,1.61-2.01,3.61-2.01,6.56s.94,4.95,2.01,6.56h-1.07c-1.07-1.34-2.14-3.35-2.14-6.56s1.07-5.22,2.14-6.56c0,0,1.07,0,1.07,0Z"/>
    <path class="cls-2" d="M909.44,41.63l-3.48-10.84h1.47l1.74,5.35c.4,1.47.8,2.81,1.2,4.02h0c.27-1.2.8-2.68,1.2-4.02l1.87-5.35h1.47l-3.88,10.84h-1.61Z"/>
    <path class="cls-2" d="M919.08,36.68v1.07h-4.02v-1.07h4.02Z"/>
    <path class="cls-2" d="M929.92,36.82c-.13-1.47-.13-3.35-.13-4.68h0c-.4,1.2-.8,2.68-1.34,4.15l-1.87,5.22h-1.07l-1.74-5.22c-.54-1.47-.94-2.94-1.2-4.15h0c0,1.34-.13,3.21-.27,4.82l-.27,4.68h-1.34l.8-10.84h1.74l1.87,5.22c.4,1.34.8,2.54,1.07,3.61h0c.27-1.07.67-2.28,1.2-3.61l1.87-5.22h1.74l.67,10.84h-1.34l-.4-4.82Z"/>
    <path class="cls-2" d="M932.73,43.51c1.2-1.61,2.01-3.61,2.01-6.56s-.8-4.95-2.01-6.56h1.07c1.07,1.34,2.14,3.35,2.14,6.56s-1.07,5.22-2.14,6.56h-1.07Z"/>
  </g>
  <g>
    <path class="cls-2" d="M833.15,64.92l-1.07,3.35h-1.47l3.61-10.84h1.74l3.75,10.84h-1.47l-1.2-3.35h-3.88ZM836.76,63.85l-1.07-3.08c-.27-.67-.4-1.34-.54-2.01h0c-.13.67-.4,1.34-.54,2.01l-1.07,3.08h3.21Z"/>
    <path class="cls-2" d="M841.18,63.18v-2.54h1.2v1.34h0c.54-.94,1.47-1.47,2.81-1.47,1.87,0,3.35,1.61,3.35,4.02,0,2.81-1.74,4.15-3.48,4.15-1.07,0-1.87-.4-2.41-1.2h0v4.28h-1.34v-8.57s-.13,0-.13,0ZM842.52,65.19v.54c.27.94,1.07,1.61,2.14,1.61,1.47,0,2.41-1.2,2.41-2.94,0-1.61-.8-2.94-2.28-2.94-.94,0-1.87.67-2.14,1.74,0,.13-.13.4-.13.54v1.47Z"/>
    <path class="cls-2" d="M850.28,63.05v-2.41h1.2v1.47h0c.4-1.07,1.2-1.74,2.14-1.74h.4v1.34h-.54c-.94,0-1.74.8-1.87,1.87v4.82h-1.34v-5.35h0Z"/>
    <path class="cls-2" d="M862.06,66.26v2.14h-1.2l-.13-1.2h0c-.4.67-1.2,1.47-2.54,1.47-1.2,0-2.68-.67-2.68-3.35v-4.55h1.47v4.15c0,1.47.4,2.41,1.74,2.41.94,0,1.61-.67,1.87-1.34.13-.27.13-.4.13-.67v-4.82h1.47l-.13,5.76h0Z"/>
    <path class="cls-2" d="M865.27,64.79c0,1.87,1.2,2.68,2.68,2.68,1.07,0,1.61-.13,2.14-.4l.27,1.07c-.54.27-1.34.54-2.54.54-2.41,0-3.88-1.61-3.88-3.88s1.34-4.15,3.61-4.15c2.54,0,3.21,2.28,3.21,3.61v.67l-5.49-.13h0ZM869.42,63.72c0-.94-.4-2.28-2.01-2.28-1.47,0-2.01,1.34-2.14,2.28h4.15Z"/>
    <path class="cls-2" d="M872.37,68.4v-11.38h1.34v4.82h0c.54-.8,1.34-1.47,2.68-1.47,1.87,0,3.35,1.61,3.21,4.02,0,2.81-1.74,4.15-3.48,4.15-1.07,0-2.01-.4-2.54-1.47h0v1.34h-1.2ZM873.84,65.19v.54c.27.94,1.07,1.61,2.14,1.61,1.47,0,2.41-1.2,2.41-2.94,0-1.61-.8-2.94-2.28-2.94-.94,0-1.87.67-2.14,1.74,0,.13-.13.4-.13.54v1.47Z"/>
    <path class="cls-2" d="M885.88,68.4l-.13-.94h0c-.4.67-1.2,1.2-2.41,1.2-1.61,0-2.41-1.07-2.41-2.28,0-1.87,1.61-2.94,4.68-2.94v-.13c0-.67-.13-1.74-1.74-1.74-.67,0-1.47.27-2.01.54l-.27-.94c.67-.4,1.61-.67,2.54-.67,2.41,0,2.94,1.61,2.94,3.21v2.94c0,.67,0,1.34.13,1.87h-1.34v-.13h0ZM885.75,64.39c-1.61,0-3.35.27-3.35,1.74,0,.94.67,1.34,1.34,1.34,1.07,0,1.61-.67,1.87-1.34,0-.13.13-.27.13-.4v-1.34Z"/>
    <path class="cls-2" d="M889.36,62.65v-2.14h1.2l.13,1.34h0c.4-.8,1.34-1.47,2.54-1.47,1.07,0,2.81.67,2.81,3.35v4.68h-1.47v-4.42c0-1.2-.4-2.28-1.74-2.28-.94,0-1.61.67-1.87,1.47,0,.13-.13.4-.13.67v4.68h-1.47v-5.89h0Z"/>
    <path class="cls-2" d="M904.76,57.16c-1.2,1.61-2.01,3.61-2.01,6.56s.94,4.95,2.01,6.56h-1.07c-1.07-1.34-2.14-3.35-2.14-6.56s1.07-5.22,2.14-6.56h1.07Z"/>
    <path class="cls-2" d="M907.7,57.56v10.84h-1.34v-10.84h1.34Z"/>
    <path class="cls-2" d="M913.32,63.45v1.07h-4.02v-1.07h4.02Z"/>
    <path class="cls-2" d="M914.93,66.66c.67.4,1.61.67,2.54.67,1.47,0,2.28-.8,2.28-1.87s-.54-1.61-2.01-2.14c-1.74-.67-2.81-1.61-2.81-3.08,0-1.74,1.34-2.94,3.48-2.94,1.07,0,1.87.27,2.41.54l-.4,1.2c-.4-.13-1.07-.54-2.01-.54-1.47,0-2.01.94-2.01,1.61,0,1.07.67,1.47,2.14,2.14,1.87.67,2.81,1.61,2.81,3.21s-1.2,3.08-3.75,3.08c-1.07,0-2.14-.27-2.81-.67l.13-1.2Z"/>
    <path class="cls-2" d="M922.02,70.28c1.2-1.61,2.01-3.61,2.01-6.56s-.8-4.95-2.01-6.56h1.07c1.07,1.34,2.14,3.35,2.14,6.56s-1.07,5.22-2.14,6.56h-1.07Z"/>
  </g>
  <g>
    <path class="cls-2" d="M833.15,91.69l-1.07,3.35h-1.47l3.61-10.84h1.74l3.75,10.84h-1.47l-1.2-3.35h-3.88ZM836.76,90.62l-1.07-3.08c-.27-.67-.4-1.34-.54-2.01h0c-.13.67-.4,1.34-.54,2.01l-1.07,3.08h3.21Z"/>
    <path class="cls-2" d="M841.18,89.95v-2.54h1.2v1.34h0c.54-.94,1.47-1.47,2.81-1.47,1.87,0,3.35,1.61,3.35,4.02,0,2.81-1.74,4.15-3.48,4.15-1.07,0-1.87-.4-2.41-1.2h0v4.28h-1.34v-8.57s-.13,0-.13,0ZM842.52,91.96v.54c.27.94,1.07,1.61,2.14,1.61,1.47,0,2.41-1.2,2.41-2.94,0-1.61-.8-2.94-2.28-2.94-.94,0-1.87.67-2.14,1.74,0,.13-.13.4-.13.54v1.47Z"/>
    <path class="cls-2" d="M850.28,89.82v-2.41h1.2v1.47h0c.4-1.07,1.2-1.74,2.14-1.74h.4v1.34h-.54c-.94,0-1.74.8-1.87,1.87v4.82h-1.34v-5.35h0Z"/>
    <path class="cls-2" d="M862.06,93.03v2.14h-1.2l-.13-1.2h0c-.4.67-1.2,1.47-2.54,1.47-1.2,0-2.68-.67-2.68-3.35v-4.55h1.47v4.28c0,1.47.4,2.41,1.74,2.41.94,0,1.61-.67,1.87-1.34.13-.27.13-.4.13-.67v-4.82h1.47l-.13,5.62h0Z"/>
    <path class="cls-2" d="M865.27,91.56c0,1.87,1.2,2.68,2.68,2.68,1.07,0,1.61-.13,2.14-.4l.27,1.07c-.54.27-1.34.54-2.54.54-2.41,0-3.88-1.61-3.88-3.88s1.34-4.15,3.61-4.15c2.54,0,3.21,2.28,3.21,3.61v.67l-5.49-.13h0ZM869.42,90.49c0-.94-.4-2.28-2.01-2.28-1.47,0-2.01,1.34-2.14,2.28h4.15Z"/>
    <path class="cls-2" d="M872.37,95.17v-11.38h1.34v4.82h0c.54-.8,1.34-1.47,2.68-1.47,1.87,0,3.35,1.61,3.21,4.02,0,2.81-1.74,4.15-3.48,4.15-1.07,0-2.01-.4-2.54-1.47h0v1.34h-1.2ZM873.84,91.96v.54c.27.94,1.07,1.61,2.14,1.61,1.47,0,2.41-1.2,2.41-2.94,0-1.61-.8-2.94-2.28-2.94-.94,0-1.87.67-2.14,1.74,0,.13-.13.4-.13.54v1.47Z"/>
    <path class="cls-2" d="M885.88,95.17l-.13-.94h0c-.4.67-1.2,1.2-2.41,1.2-1.61,0-2.41-1.07-2.41-2.28,0-1.87,1.61-2.94,4.68-2.94v-.13c0-.67-.13-1.74-1.74-1.74-.67,0-1.47.27-2.01.54l-.27-.94c.67-.4,1.61-.67,2.54-.67,2.41,0,2.94,1.61,2.94,3.21v2.94c0,.67,0,1.34.13,1.87h-1.34v-.13h0ZM885.75,91.16c-1.61,0-3.35.27-3.35,1.74,0,.94.67,1.34,1.34,1.34,1.07,0,1.61-.67,1.87-1.34,0-.13.13-.27.13-.4v-1.34Z"/>
    <path class="cls-2" d="M889.36,89.42v-2.14h1.2l.13,1.34h0c.4-.8,1.34-1.47,2.54-1.47,1.07,0,2.81.67,2.81,3.35v4.68h-1.47v-4.42c0-1.2-.4-2.28-1.74-2.28-.94,0-1.61.67-1.87,1.47,0,.13-.13.4-.13.67v4.68h-1.47v-5.89h0Z"/>
    <path class="cls-2" d="M904.76,83.93c-1.2,1.61-2.01,3.61-2.01,6.56s.94,4.95,2.01,6.56h-1.07c-1.07-1.34-2.14-3.35-2.14-6.56s1.07-5.22,2.14-6.56h1.07Z"/>
    <path class="cls-2" d="M906.1,93.7c.4.27,1.2.54,1.87.54,1.07,0,1.47-.54,1.47-1.2s-.4-1.07-1.47-1.47c-1.34-.54-2.01-1.2-2.01-2.14,0-1.2,1.07-2.28,2.68-2.28.8,0,1.47.27,1.87.54l-.4,1.07c-.27-.13-.8-.4-1.61-.4s-1.34.54-1.34,1.07c0,.67.4.94,1.47,1.34,1.34.54,2.01,1.2,2.01,2.41,0,1.34-1.07,2.28-2.94,2.28-.8,0-1.61-.27-2.14-.54l.54-1.2Z"/>
    <path class="cls-2" d="M914.13,85.13c0,.54-.4.8-.94.8s-.8-.4-.8-.8c0-.54.4-.94.94-.94.54.13.8.54.8.94ZM912.65,95.17v-7.76h1.47v7.76h-1.47Z"/>
    <path class="cls-2" d="M916.4,89.42v-2.14h1.2l.13,1.34h0c.4-.8,1.34-1.47,2.54-1.47,1.07,0,2.81.67,2.81,3.35v4.68h-1.47v-4.42c0-1.2-.4-2.28-1.74-2.28-.94,0-1.61.67-1.87,1.47,0,.13-.13.4-.13.67v4.68h-1.47v-5.89h0Z"/>
    <path class="cls-2" d="M928.72,89.42v-2.14h1.2v1.2h0c.4-.8,1.2-1.47,2.41-1.47,1.07,0,1.87.67,2.14,1.61h0c.27-.4.54-.8.8-1.07.4-.4.94-.54,1.74-.54,1.07,0,2.54.67,2.54,3.35v4.55h-1.34v-4.42c0-1.47-.54-2.41-1.74-2.41-.8,0-1.47.54-1.61,1.34,0,.13-.13.4-.13.67v4.82h-1.34v-4.68c0-1.2-.54-2.14-1.61-2.14-.94,0-1.47.67-1.74,1.47-.13.27-.13.4-.13.67v4.68h-1.34l.13-5.49h0Z"/>
    <path class="cls-2" d="M942.9,91.56c0,1.87,1.2,2.68,2.68,2.68,1.07,0,1.61-.13,2.14-.4l.27,1.07c-.54.27-1.34.54-2.54.54-2.41,0-3.88-1.61-3.88-3.88s1.34-4.15,3.61-4.15c2.54,0,3.21,2.28,3.21,3.61v.67l-5.49-.13h0ZM947.05,90.49c0-.94-.4-2.28-2.01-2.28-1.47,0-2.01,1.34-2.14,2.28h4.15Z"/>
    <path class="cls-2" d="M950.13,89.42v-2.14h1.2l.13,1.34h0c.4-.8,1.34-1.47,2.54-1.47,1.07,0,2.81.67,2.81,3.35v4.68h-1.47v-4.42c0-1.2-.4-2.28-1.74-2.28-.94,0-1.61.67-1.87,1.47,0,.13-.13.4-.13.67v4.68h-1.47v-5.89h0Z"/>
    <path class="cls-2" d="M964.59,94.9c-.4.13-1.2.4-2.28.4-2.41,0-3.88-1.61-3.88-4.02s1.61-4.15,4.15-4.15c.8,0,1.61.27,2.01.4l-.27,1.07c-.4-.13-.8-.4-1.61-.4-1.74,0-2.81,1.34-2.81,2.94,0,1.74,1.2,2.94,2.68,2.94.8,0,1.34-.27,1.74-.4l.27,1.2Z"/>
    <path class="cls-2" d="M967.8,85.13c0,.54-.4.8-.94.8s-.8-.4-.8-.8c0-.54.4-.94.94-.94.4.13.8.54.8.94ZM966.19,95.17v-7.76h1.47v7.76h-1.47Z"/>
    <path class="cls-2" d="M977.03,91.16c0,2.81-2.01,4.15-3.88,4.15-2.14,0-3.75-1.61-3.75-4.02,0-2.54,1.74-4.15,3.88-4.15,2.28,0,3.75,1.61,3.75,4.02ZM970.88,91.29c0,1.74.94,2.94,2.41,2.94,1.34,0,2.41-1.2,2.41-3.08,0-1.34-.67-2.94-2.28-2.94-1.87,0-2.54,1.61-2.54,3.08ZM975.29,84.06l-2.01,2.28h-1.07l1.47-2.28h1.61Z"/>
    <path class="cls-2" d="M978.77,89.42v-2.14h1.2l.13,1.34h0c.4-.8,1.34-1.47,2.54-1.47,1.07,0,2.81.67,2.81,3.35v4.68h-1.47v-4.42c0-1.2-.4-2.28-1.74-2.28-.94,0-1.61.67-1.87,1.47,0,.13-.13.4-.13.67v4.68h-1.47v-5.89h0Z"/>
    <path class="cls-2" d="M986.8,97.05c1.2-1.61,2.01-3.61,2.01-6.56s-.8-4.95-2.01-6.56h1.07c1.07,1.34,2.14,3.35,2.14,6.56s-1.07,5.22-2.14,6.56h-1.07Z"/>
  </g>
  <g>
    <path class="cls-2" d="M831.41,112.57c.67-.13,1.74-.27,2.68-.27,1.47,0,2.41.27,3.08.94.54.54.8,1.2.8,2.01,0,1.47-.94,2.41-2.01,2.81h0c.8.27,1.34,1.07,1.61,2.14.4,1.47.67,2.54.8,2.94h-1.47c-.13-.27-.4-1.2-.67-2.54-.27-1.47-.94-2.01-2.14-2.14h-1.34v4.68h-1.34v-10.57ZM832.88,117.52h1.47c1.47,0,2.41-.8,2.41-2.01,0-1.34-1.07-2.01-2.54-2.01-.67,0-1.2,0-1.34.13v3.88h0Z"/>
    <path class="cls-2" d="M840.91,119.67c0,1.87,1.2,2.68,2.68,2.68,1.07,0,1.61-.13,2.14-.4l.27,1.07c-.54.27-1.34.54-2.54.54-2.41,0-3.88-1.61-3.88-3.88s1.34-4.15,3.61-4.15c2.54,0,3.21,2.28,3.21,3.61v.67l-5.49-.13h0ZM845.06,118.6c0-.94-.4-2.28-2.01-2.28-1.47,0-2.01,1.34-2.14,2.28h4.15Z"/>
    <path class="cls-2" d="M848.14,118.06v-2.54h1.2v1.34h0c.54-.94,1.47-1.47,2.81-1.47,1.87,0,3.35,1.61,3.35,4.02,0,2.81-1.74,4.15-3.48,4.15-1.07,0-1.87-.4-2.41-1.2h0v4.28h-1.34v-8.57s-.13,0-.13,0ZM849.61,120.07v.54c.27.94,1.07,1.61,2.14,1.61,1.47,0,2.41-1.2,2.41-2.94,0-1.61-.8-2.94-2.28-2.94-.94,0-1.87.67-2.14,1.74,0,.13-.13.4-.13.54v1.47Z"/>
    <path class="cls-2" d="M857.24,117.93v-2.41h1.2v1.47h0c.4-1.07,1.2-1.74,2.14-1.74h.4v1.34h-.54c-.94,0-1.74.8-1.87,1.87v4.82h-1.34v-5.35h0Z"/>
    <path class="cls-2" d="M869.02,121.14v2.14h-1.2l-.13-1.2h0c-.4.67-1.2,1.47-2.54,1.47-1.2,0-2.68-.67-2.68-3.35v-4.55h1.47v4.28c0,1.47.4,2.41,1.74,2.41.94,0,1.61-.67,1.87-1.34.13-.27.13-.4.13-.67v-4.82h1.47l-.13,5.62h0Z"/>
    <path class="cls-2" d="M872.23,119.67c0,1.87,1.2,2.68,2.68,2.68,1.07,0,1.61-.13,2.14-.4l.27,1.07c-.54.27-1.34.54-2.54.54-2.41,0-3.88-1.61-3.88-3.88s1.34-4.15,3.61-4.15c2.54,0,3.21,2.28,3.21,3.61v.67l-5.49-.13h0ZM876.38,118.6c0-.94-.4-2.28-2.01-2.28-1.47,0-2.01,1.34-2.14,2.28h4.15Z"/>
    <path class="cls-2" d="M879.33,123.28v-11.38h1.34v4.82h0c.54-.8,1.34-1.47,2.68-1.47,1.87,0,3.35,1.61,3.21,4.02,0,2.81-1.74,4.15-3.48,4.15-1.07,0-2.01-.4-2.54-1.47h0v1.34h-1.2ZM880.8,120.07v.54c.27.94,1.07,1.61,2.14,1.61,1.47,0,2.41-1.2,2.41-2.94,0-1.61-.8-2.94-2.28-2.94-.94,0-1.87.67-2.14,1.74,0,.13-.13.4-.13.54v1.47Z"/>
    <path class="cls-2" d="M892.84,123.28l-.13-.94h0c-.4.67-1.2,1.2-2.41,1.2-1.61,0-2.41-1.07-2.41-2.28,0-1.87,1.61-2.94,4.68-2.94v-.13c0-.67-.13-1.74-1.74-1.74-.67,0-1.47.27-2.01.54l-.27-.94c.67-.4,1.61-.67,2.54-.67,2.41,0,2.94,1.61,2.94,3.21v2.94c0,.67,0,1.34.13,1.87h-1.34v-.13h0ZM892.71,119.26c-1.61,0-3.35.27-3.35,1.74,0,.94.67,1.34,1.34,1.34,1.07,0,1.61-.67,1.87-1.34,0-.13.13-.27.13-.4v-1.34Z"/>
    <path class="cls-2" d="M896.32,117.52v-2.14h1.2l.13,1.34h0c.4-.8,1.34-1.47,2.54-1.47,1.07,0,2.81.67,2.81,3.35v4.68h-1.47v-4.42c0-1.2-.4-2.28-1.74-2.28-.94,0-1.61.67-1.87,1.47,0,.13-.13.4-.13.67v4.68h-1.47v-5.89h0Z"/>
  </g>
  <rect class="cls-4" x="37.52" y="574.17" width="48.1" height="24"/>
  <rect class="cls-6" x="37.52" y="574.17" width="48.1" height="10.1"/>
  <rect class="cls-4" x="142.72" y="518.17" width="48.1" height="80"/>
  <rect class="cls-7" x="142.72" y="518.17" width="48.1" height="39.9"/>
  <rect class="cls-4" x="247.82" y="510.17" width="48.1" height="88"/>
  <rect class="cls-7" x="247.82" y="510.17" width="48.1" height="32.1"/>
  <rect class="cls-4" x="353.02" y="438.17" width="48.1" height="160"/>
  <rect class="cls-6" x="353.02" y="438.17" width="48.1" height="31.6"/>
  <rect class="cls-7" x="353.02" y="469.57" width="48.1" height="56.6"/>
  <rect class="cls-4" x="458.22" y="158.17" width="48.1" height="440"/>
  <rect class="cls-7" x="458.22" y="215.47" width="48.1" height="183.2"/>
  <rect class="cls-6" x="458.22" y="158.17" width="48.1" height="57.1"/>
  <rect class="cls-4" x="563.42" y="286.17" width="48.1" height="312"/>
  <rect class="cls-7" x="563.42" y="316.17" width="48.1" height="113.1"/>
  <rect class="cls-6" x="563.42" y="286.17" width="48.1" height="30"/>
  <rect class="cls-4" x="668.62" y="46.17" width="48.1" height="552"/>
  <rect class="cls-6" x="668.62" y="46.17" width="48.1" height="56.1"/>
  <rect class="cls-7" x="668.62" y="102.27" width="48.1" height="224.1"/>
  <g id="Capa_3" data-name="Capa 3">
    <path class="cls-2" d="M168.92,535.37h-3l-.3,2h.6c.6,0,1.2.1,1.7.4.6.3,1.1,1,1.1,2,0,1.5-1.2,2.7-2.9,2.7-.9,0-1.6-.2-1.9-.5l.3-.8c.3.2,1,.4,1.7.4,1,0,1.8-.6,1.8-1.7,0-1-.7-1.7-2.2-1.7-.4,0-.8,0-1.1.1l.5-3.7h3.7v.8h0Z"/>
    <path class="cls-2" d="M168.92,576.37h-3l-.3,2h.6c.6,0,1.2.1,1.7.4.6.3,1.1,1,1.1,2,0,1.5-1.2,2.7-2.9,2.7-.9,0-1.6-.2-1.9-.5l.3-.8c.3.2,1,.4,1.7.4,1,0,1.8-.6,1.8-1.7,0-1-.7-1.7-2.2-1.7-.4,0-.8,0-1.1.1l.5-3.7h3.7v.8h0Z"/>
    <path class="cls-2" d="M272.62,532.07v-2.1h-3.6v-.7l3.5-5h1.1v4.8h1.1v.8h-1.1v2.1h-1v.1ZM272.62,529.17v-3.8h0c-.2.5-.4.8-.6,1.2l-1.9,2.7h2.5v-.1Z"/>
    <path class="cls-2" d="M274.42,566.27v.7l-3.4,7.1h-1.1l3.4-6.9h-3.8v-.9h4.9Z"/>
    <path class="cls-2" d="M379.92,495.67v.7l-3.4,7.1h-1.1l3.4-6.9h-3.8v-.9h4.9Z"/>
    <path class="cls-2" d="M375.42,568.77h.9c.6-.1,1.2-.3,1.6-.8.5-.5.9-1.2,1-2.1h0c-.4.5-1.1.8-1.8.8-1.4,0-2.3-1.1-2.3-2.4,0-1.5,1.1-2.8,2.7-2.8s2.6,1.3,2.6,3.3c0,1.7-.6,2.9-1.3,3.7-.6.6-1.4.9-2.3,1-.4.1-.7.1-1,.1v-.8h-.1ZM375.82,564.27c0,1,.6,1.7,1.5,1.7.7,0,1.3-.3,1.5-.8.1-.1.1-.2.1-.4,0-1.3-.5-2.4-1.6-2.4-.9,0-1.5.8-1.5,1.9Z"/>
    <path class="cls-2" d="M378.22,458.47v-2.1h-3.6v-.7l3.5-5h1.1v4.8h1.1v.8h-1.1v2.1h-1v.1ZM378.22,455.57v-3.8h0c-.2.5-.4.8-.6,1.2l-1.9,2.7h0l2.5-.1h0Z"/>
    <g>
      <path class="cls-2" d="M476.92,312.47v-.6l.8-.8c2-1.9,2.9-2.9,2.9-4.1,0-.8-.4-1.5-1.5-1.5-.7,0-1.3.4-1.7.7l-.3-.7c.5-.5,1.3-.8,2.2-.8,1.7,0,2.4,1.2,2.4,2.3,0,1.4-1,2.6-2.7,4.2l-.6.6h3.5v.9h-5v-.2h0Z"/>
      <path class="cls-2" d="M483.32,311.27c.3.2,1,.5,1.7.5,1.4,0,1.8-.9,1.8-1.5,0-1.1-1-1.6-2-1.6h-.6v-.8h.6c.8,0,1.7-.4,1.7-1.3,0-.6-.4-1.2-1.4-1.2-.6,0-1.2.3-1.6.5l-.3-.8c.4-.3,1.2-.6,2-.6,1.5,0,2.2.9,2.2,1.9,0,.8-.5,1.5-1.4,1.8h0c1,.2,1.7.9,1.7,2,0,1.2-1,2.3-2.8,2.3-.9,0-1.6-.3-2-.5l.4-.7Z"/>
    </g>
    <g>
      <path class="cls-2" d="M476.82,503.47v-.6l.8-.8c2-1.9,2.9-2.9,2.9-4.1,0-.8-.4-1.5-1.5-1.5-.7,0-1.3.4-1.7.7l-.3-.7c.5-.5,1.3-.8,2.2-.8,1.7,0,2.4,1.2,2.4,2.3,0,1.4-1,2.6-2.7,4.2l-.6.6h3.5v.9h-5v-.2h0Z"/>
      <path class="cls-2" d="M487.62,496.57h-3l-.3,2h.6c.6,0,1.2.1,1.7.4.6.3,1.1,1,1.1,2,0,1.5-1.2,2.7-2.9,2.7-.9,0-1.6-.2-1.9-.5l.3-.8c.3.2,1,.4,1.7.4,1,0,1.8-.6,1.8-1.7,0-1-.7-1.7-2.2-1.7-.4,0-.8,0-1.1.1l.5-3.7h3.7v.8h0Z"/>
    </g>
    <path class="cls-2" d="M484.72,182.67v.7l-3.4,7.1h-1.1l3.4-6.9h-3.8v-.9h4.9Z"/>
    <g>
      <path class="cls-2" d="M582.82,372.17h0l-1.4.7-.2-.8,1.7-.9h.9v7.8h-1v-6.8Z"/>
      <path class="cls-2" d="M589.92,378.97v-2.1h-3.6v-.7l3.5-5h1.1v4.8h1.1v.8h-1.1v2.1h-1v.1ZM589.92,376.07v-3.8h0c-.2.5-.4.8-.6,1.2l-1.9,2.7h2.5v-.1Z"/>
    </g>
    <g>
      <path class="cls-2" d="M581.82,518.97v-.6l.8-.8c2-1.9,2.9-2.9,2.9-4.1,0-.8-.4-1.5-1.5-1.5-.7,0-1.3.4-1.7.7l-.3-.7c.5-.5,1.3-.8,2.2-.8,1.7,0,2.4,1.2,2.4,2.3,0,1.4-1,2.6-2.7,4.2l-.6.6h3.5v.9h-5v-.2h0Z"/>
      <path class="cls-2" d="M590.32,512.17h0l-1.4.7-.2-.8,1.7-.9h.9v7.8h-1v-6.8Z"/>
    </g>
    <path class="cls-2" d="M587.32,304.97v-2.1h-3.6v-.7l3.5-5h1.1v4.8h1.1v.8h-1.1v2.1h-1v.1ZM587.32,302.07v-3.8h0c-.2.5-.4.8-.6,1.2l-1.9,2.7h2.5v-.1Z"/>
    <g>
      <path class="cls-2" d="M687.22,234.57v-.6l.8-.8c2-1.9,2.9-2.9,2.9-4.1,0-.8-.4-1.5-1.5-1.5-.7,0-1.3.4-1.7.7l-.3-.7c.5-.5,1.3-.8,2.2-.8,1.7,0,2.4,1.2,2.4,2.3,0,1.4-1,2.6-2.7,4.2l-.6.6h3.5v.9h-5v-.2h0Z"/>
      <path class="cls-2" d="M693.32,232.57c0-1,.6-1.7,1.5-2.1h0c-.9-.4-1.2-1.1-1.2-1.8,0-1.2,1-2.1,2.4-2.1,1.5,0,2.3.9,2.3,1.9,0,.7-.3,1.4-1.3,1.8h0c1,.4,1.6,1.1,1.6,2,0,1.4-1.2,2.3-2.7,2.3-1.6.1-2.6-.8-2.6-2ZM697.52,232.57c0-.9-.7-1.4-1.7-1.7-.9.3-1.4.9-1.4,1.6,0,.8.6,1.5,1.6,1.5.9,0,1.5-.6,1.5-1.4ZM694.62,228.67c0,.8.6,1.2,1.5,1.4.7-.2,1.2-.7,1.2-1.4,0-.6-.4-1.3-1.3-1.3s-1.4.6-1.4,1.3Z"/>
    </g>
    <g>
      <path class="cls-2" d="M687.52,468.97c.3.2,1,.5,1.7.5,1.4,0,1.8-.9,1.8-1.5,0-1.1-1-1.6-2-1.6h-.6v-.8h.6c.8,0,1.7-.4,1.7-1.3,0-.6-.4-1.2-1.4-1.2-.6,0-1.2.3-1.6.5l-.3-.8c.4-.3,1.2-.6,2-.6,1.5,0,2.2.9,2.2,1.9,0,.8-.5,1.5-1.4,1.8h0c1,.2,1.7.9,1.7,2,0,1.2-1,2.3-2.8,2.3-.9,0-1.6-.3-2-.5l.4-.7Z"/>
      <path class="cls-2" d="M696.62,470.17v-2.1h-3.6v-.7l3.5-5h1.1v4.8h1.1v.8h-1.1v2.1h-1v.1ZM696.62,467.27v-3.8h0c-.2.5-.4.8-.6,1.2l-1.9,2.7h2.5v-.1Z"/>
    </g>
    <path class="cls-2" d="M695.32,68.07v.7l-3.4,7.1h-1.1l3.4-6.9h-3.8v-.9h4.9Z"/>
    <path class="cls-2" d="M61.32,576.07h0l-1.4.7-.2-.8,1.7-.9h.9v7.8h-1v-6.8Z"/>
    <path class="cls-2" d="M60.02,595.67c.3.2,1,.5,1.7.5,1.4,0,1.8-.9,1.8-1.5,0-1.1-1-1.6-2-1.6h-.6v-.8h.6c.8,0,1.7-.4,1.7-1.3,0-.6-.4-1.2-1.4-1.2-.6,0-1.2.3-1.6.5l-.3-.8c.4-.3,1.2-.6,2-.6,1.5,0,2.2.9,2.2,1.9,0,.8-.5,1.5-1.4,1.8h0c1,.2,1.7.9,1.7,2,0,1.2-1,2.3-2.8,2.3-.9,0-1.6-.3-2-.5l.4-.7Z"/>
  </g>
  <g>
    <path class="cls-2" d="M103.52,508.07v-.6l.8-.8c2-1.9,2.9-2.9,2.9-4.1,0-.8-.4-1.5-1.5-1.5-.7,0-1.3.4-1.7.7l-.3-.7c.5-.5,1.3-.8,2.2-.8,1.7,0,2.4,1.2,2.4,2.3,0,1.4-1,2.6-2.7,4.2l-.6.6h3.5v.9h-5s0-.2,0-.2Z"/>
    <path class="cls-2" d="M114.12,501.07h-.8c-1.7.3-2.5,1.5-2.7,2.8h0c.4-.5,1-.9,1.9-.9,1.4,0,2.4,1,2.4,2.5,0,1.4-1,2.7-2.6,2.7-1.7,0-2.8-1.3-2.8-3.3,0-1.5.6-2.7,1.3-3.5.6-.6,1.5-1,2.5-1.2.3,0,.6-.1.8-.1,0,0,0,1,0,1ZM113.82,505.57c0-1.1-.6-1.8-1.6-1.8-.6,0-1.2.4-1.5,1-.1.1-.1.3-.1.5,0,1.3.6,2.2,1.7,2.2.9-.1,1.5-.8,1.5-1.9Z"/>
  </g>
  <g>
    <path class="cls-2" d="M209.82,461.47c.3.2,1,.5,1.7.5,1.4,0,1.8-.9,1.8-1.5,0-1.1-1-1.6-2-1.6h-.6v-.8h.6c.8,0,1.7-.4,1.7-1.3,0-.6-.4-1.2-1.4-1.2-.6,0-1.2.3-1.6.5l-.3-.8c.4-.3,1.2-.6,2-.6,1.5,0,2.2.9,2.2,1.9,0,.8-.5,1.5-1.4,1.8h0c1,.2,1.7.9,1.7,2,0,1.2-1,2.3-2.8,2.3-.9,0-1.6-.3-2-.5l.4-.7Z"/>
    <path class="cls-2" d="M219.02,462.67v-2.1h-3.6v-.7l3.5-5h1.1v4.8h1.1v.8h-1.1v2.1h-1v.1ZM219.02,459.67v-3.8h0c-.2.5-.4.8-.6,1.2l-1.9,2.7h2.5v-.1Z"/>
  </g>
  <g>
    <path class="cls-2" d="M319.62,351.27h-3l-.3,2h.6c.6,0,1.2.1,1.7.4.6.3,1.1,1,1.1,2,0,1.5-1.2,2.7-2.9,2.7-.9,0-1.6-.2-1.9-.5l.3-.8c.3.2,1,.4,1.7.4,1,0,1.8-.6,1.8-1.7,0-1-.7-1.7-2.2-1.7-.4,0-.8,0-1.1.1l.5-3.7h3.7v.8h0Z"/>
    <path class="cls-2" d="M321.72,357.37h.9c.6-.1,1.2-.3,1.6-.8.5-.5.9-1.2,1-2.1h0c-.4.5-1.1.8-1.8.8-1.4,0-2.3-1.1-2.3-2.4,0-1.5,1.1-2.8,2.7-2.8s2.6,1.3,2.6,3.3c0,1.7-.6,2.9-1.3,3.7-.6.6-1.4.9-2.3,1-.4.1-.7.1-1,.1v-.8h-.1ZM322.12,352.97c0,1,.6,1.7,1.5,1.7.7,0,1.3-.3,1.5-.8.1-.1.1-.2.1-.4,0-1.3-.5-2.4-1.6-2.4-.9,0-1.5.8-1.5,1.9Z"/>
  </g>
  <g>
    <path class="cls-2" d="M423.42,412.67v-2.1h-3.6v-.7l3.5-5h1.1v4.8h1.1v.8h-1.1v2.1h-1v.1ZM423.42,409.77v-3.8h0c-.2.5-.4.8-.6,1.2l-1.9,2.7h2.5v-.1Z"/>
    <path class="cls-2" d="M431.32,404.87v.7l-3.4,7.1h-1.1l3.4-6.9h-3.8v-.9h4.9Z"/>
  </g>
  <g>
    <path class="cls-2" d="M527.32,426.97v-2.1h-3.6v-.7l3.5-5h1.1v4.8h1.1v.8h-1.1v2.1l-1,.1h0ZM527.32,423.97v-3.8h0c-.2.5-.4.8-.6,1.2l-1.9,2.7h2.5v-.1Z"/>
    <path class="cls-2" d="M530.42,425.77c.3.2,1,.5,1.7.5,1.4,0,1.8-.9,1.8-1.5,0-1.1-1-1.6-2-1.6h-.6v-.8h.6c.8,0,1.7-.4,1.7-1.3,0-.6-.4-1.2-1.4-1.2-.6,0-1.2.3-1.6.5l-.3-.8c.4-.3,1.2-.6,2-.6,1.5,0,2.2.9,2.2,1.9,0,.8-.5,1.5-1.4,1.8h0c1,.2,1.7.9,1.7,2,0,1.2-1,2.3-2.8,2.3-.9,0-1.6-.3-2-.5l.4-.7Z"/>
  </g>
  <g>
    <path class="cls-2" d="M627.82,519.37v-.6l.8-.8c2-1.9,2.9-2.9,2.9-4.1,0-.8-.4-1.5-1.5-1.5-.7,0-1.3.4-1.7.7l-.3-.7c.5-.5,1.3-.8,2.2-.8,1.7,0,2.4,1.2,2.4,2.3,0,1.4-1,2.6-2.7,4.2l-.6.6h3.5v.9h-5v-.2h0Z"/>
    <path class="cls-2" d="M636.22,512.57h0l-1.4.7-.2-.8,1.7-.9h.9v7.8h-1v-6.8Z"/>
  </g>
  <g>
    <path class="cls-2" d="M738.62,396.97h-3l-.3,2h.6c.6,0,1.2.1,1.7.4.6.3,1.1,1,1.1,2,0,1.5-1.2,2.7-2.9,2.7-.9,0-1.6-.2-1.9-.5l.3-.8c.3.2,1,.4,1.7.4,1,0,1.8-.6,1.8-1.7,0-1-.7-1.7-2.2-1.7-.4,0-.8,0-1.1.1l.5-3.7h3.7v.8h0Z"/>
    <path class="cls-2" d="M742.42,396.97h0l-1.4.7-.2-.8,1.7-.9h.9v7.8h-1v-6.8Z"/>
  </g>
</svg>